<svg width="500" height="224" viewBox="0 0 500 224" fill="none" xmlns="http://www.w3.org/2000/svg">
<g id="Add" clip-path="url(#clip0_479_229)">
<path id="RightBackTriangle" d="M370.5 205.866L473.26 112L370.5 18.1328V205.866Z" fill="#BB7DB8" stroke="#BB7DB8"/>
<path id="LeftFrame" d="M0 111.5L87.0316 32L87 32.5L1 111.5L87.0316 190V191L0 111.5Z" fill="#BB7DB8" stroke="#BB7DB8"/>
<path id="LeftFrame_2" d="M500.032 111.5L413 32L413.032 32.5L499.032 111.5L413 190V191L500.032 111.5Z" fill="#BB7DB8" stroke="#BB7DB8"/>
<path id="BackLeftTriangle" d="M130.5 205.866L27.7402 112L130.5 18.1328V205.866Z" fill="#BB7DB8" stroke="#BB7DB8"/>
<g id="Base">
<mask id="path-5-inside-1_479_229" fill="white">
<path d="M370 25L465 111.5L370 198H131L36 111.5L131 25H370Z"/>
</mask>
<path d="M370 25L465 111.5L370 198H131L36 111.5L131 25H370Z" fill="url(#paint0_linear_479_229)"/>
<path d="M370 25L370.337 24.6303L370.194 24.5H370V25ZM465 111.5L465.337 111.87L465.743 111.5L465.337 111.13L465 111.5ZM370 198V198.5H370.194L370.337 198.37L370 198ZM131 198L130.663 198.37L130.806 198.5H131V198ZM36 111.5L35.6634 111.13L35.2573 111.5L35.6634 111.87L36 111.5ZM131 25V24.5H130.806L130.663 24.6303L131 25ZM370 25L369.663 25.3697L464.663 111.87L465 111.5L465.337 111.13L370.337 24.6303L370 25ZM465 111.5L464.663 111.13L369.663 197.63L370 198L370.337 198.37L465.337 111.87L465 111.5ZM370 198V197.5H131V198V198.5H370V198ZM131 198L131.337 197.63L36.3366 111.13L36 111.5L35.6634 111.87L130.663 198.37L131 198ZM36 111.5L36.3366 111.87L131.337 25.3697L131 25L130.663 24.6303L35.6634 111.13L36 111.5ZM131 25V25.5H370V25V24.5H131V25Z" fill="#BB7DB8" mask="url(#path-5-inside-1_479_229)"/>
</g>
<g id="AddIcon">
<path d="M258.571 168.252L250 172L241.429 168.252V123.278H258.571V168.252Z" fill="#BB7DB8"/>
<path d="M310 111.999L305.385 120.57H195.274L190 111.999L195.274 103.428H305.385L310 111.999Z" fill="#BB7DB8"/>
<path d="M258.571 55.748V100.722H241.429V55.748L250 52L258.571 55.748Z" fill="#BB7DB8"/>
</g>
</g>
<defs>
<linearGradient id="paint0_linear_479_229" x1="465" y1="111.5" x2="36" y2="111.5" gradientUnits="userSpaceOnUse">
<stop stop-color="#BB7DB8"/>
<stop offset="0.3"/>
<stop offset="0.504808"/>
<stop offset="0.7"/>
<stop offset="1" stop-color="#BB7DB8"/>
</linearGradient>
<clipPath id="clip0_479_229">
<rect width="500" height="224" fill="white"/>
</clipPath>
</defs>
</svg>
