<svg width="156" height="156" viewBox="0 0 156 156" fill="none" xmlns="http://www.w3.org/2000/svg">
<path fill-rule="evenodd" clip-rule="evenodd" d="M131.118 70.3799C135.841 73.1084 140.978 75.0456 146.326 76.1152L155.75 78L146.326 79.8848C143.411 80.4679 140.558 81.31 137.801 82.3965C135.426 111.8 111.854 135.214 82.3809 137.341C81.3019 140.086 80.4651 142.925 79.8848 145.827L78 155.251L76.1152 145.827C75.0456 140.479 73.1084 135.342 70.3799 130.619L68 126.501H88L85.6201 130.619C84.8743 131.91 84.1895 133.232 83.5635 134.581C83.9553 133.737 84.3707 132.904 84.8096 132.082C109.561 129.025 129.219 109.524 132.513 84.8467C133.353 84.3961 134.206 83.9697 135.069 83.5684C133.725 84.193 132.405 84.8764 131.118 85.6201L127 88V68L131.118 70.3799ZM75.5 133.751L78 141.251L80.5 133.751L82.3301 130.001H73.6699L75.5 133.751ZM130.5 82.3301L134.25 80.5L141.75 78L134.25 75.5L130.5 73.6699V82.3301Z" fill="#D9D9D9"/>
<path fill-rule="evenodd" clip-rule="evenodd" d="M79.8848 9.42383C80.5819 12.9094 81.6495 16.3047 83.0625 19.5547C82.7895 18.9259 82.5294 18.2915 82.2822 17.6523C112.144 19.7582 135.972 43.714 137.876 73.6309C136.089 72.9301 134.343 72.1269 132.646 71.2236C129.779 45.9934 109.842 25.9422 84.666 22.9004C84.5937 22.7629 84.5232 22.6245 84.4521 22.4863C84.8243 23.21 85.2123 23.9261 85.6201 24.6318L88 28.75H68L70.3799 24.6318C70.809 23.8891 71.2158 23.1346 71.6055 22.3721C71.5153 22.5485 71.4253 22.725 71.333 22.9004C46.2052 25.9367 26.3 45.9173 23.374 71.0791C23.7959 70.8513 24.2162 70.62 24.6318 70.3799L28.75 68V88L24.6318 85.6201C24.2603 85.4054 23.8854 85.197 23.5088 84.9922C26.8606 109.601 46.4867 129.031 71.1895 132.082C72.1008 133.789 72.9118 135.545 73.6182 137.342C44.1792 135.217 20.6254 111.853 18.2051 82.4971C15.3687 81.3614 12.4296 80.4859 9.42383 79.8848L0 78L9.42383 76.1152C12.4036 75.5193 15.3173 74.6526 18.1309 73.5312C20.0817 43.6609 43.8895 19.7558 73.7178 17.6523C73.2154 18.9514 72.6583 20.2294 72.0488 21.4834C73.9095 17.657 75.2789 13.6055 76.1152 9.42383L78 0L79.8848 9.42383ZM21.5 75.5L14 78L21.5 80.5L25.25 82.3301V73.6699L21.5 75.5ZM75.5 21.5L73.6699 25.25H82.3301L80.5 21.5L78 14L75.5 21.5ZM83.7236 21.0156C83.7676 21.1085 83.8138 21.2003 83.8584 21.293C83.8057 21.1833 83.7521 21.074 83.7002 20.9639L83.7236 21.0156Z" fill="#D9D9D9"/>
<path fill-rule="evenodd" clip-rule="evenodd" d="M109.64 77.8203L77.8193 109.64L46 77.8203L77.8193 46L109.64 77.8203ZM92 76L93 81L81 91H75L63 81L64 76L57 72L51.5 78L78 104.5L104.5 78L99 72L92 76ZM69 77.5L78 87L87 77.5L78 68L69 77.5ZM71 65L78 60L85 65L78 55.7549L71 65Z" fill="#D9D9D9"/>
</svg>
