<svg width="98" height="48" viewBox="0 0 98 48" fill="none" xmlns="http://www.w3.org/2000/svg">
<path d="M31 24L49 6L67 24L49 42L31 24Z" stroke="#3D4879"/>
<path d="M29 24L49 4L69 24L49 44L29 24Z" stroke="#3D4879" stroke-width="0.5"/>
<path d="M52.408 22.2891C52.1152 21.9963 52.0464 21.5833 52.2381 21.3334L52.2802 21.2857L57.0608 16.5052C57.2351 16.8116 57.2792 17.1493 57.1782 17.4208L57.2272 17.4698L53.7221 20.975L54.2876 21.5405L52.535 23.2931L51.9695 22.7276L52.408 22.2891ZM51.4592 18.7121L52.0247 19.2776L55.5299 15.7725L55.5803 15.8229C55.8516 15.7223 56.1886 15.7653 56.4946 15.9389L51.714 20.7195L51.6664 20.7616C51.4165 20.9534 51.0035 20.8846 50.7107 20.5917L50.2722 21.0302L49.7066 20.4647L51.4592 18.7121ZM52.2795 26.714L52.2374 26.6664C52.0457 26.4165 52.1145 26.0035 52.4073 25.7107L51.9688 25.2722L52.5344 24.7066L54.2869 26.4592L53.7214 27.0247L57.2265 30.5299L57.1761 30.5803C57.2768 30.8519 57.2335 31.189 57.0594 31.4953L52.2789 26.7147L52.2795 26.714ZM47.5853 25.4144C46.8042 24.6334 46.8042 23.367 47.5853 22.586C48.3663 21.8049 49.6327 21.8049 50.4137 22.586C51.1948 23.367 51.1948 24.6334 50.4137 25.4144C49.6327 26.1955 48.3663 26.1955 47.5853 25.4144ZM41.5045 15.9389C41.8109 15.7647 42.1486 15.7206 42.4201 15.8215L42.4691 15.7725L45.9743 19.2776L46.5398 18.7121L48.2924 20.4647L47.7269 21.0302L47.2884 20.5917C46.9955 20.8846 46.5826 20.9534 46.3327 20.7616L46.285 20.7195L41.5045 15.9389ZM50.2715 26.9695L50.71 27.408C51.0028 27.1152 51.4158 27.0464 51.6657 27.2381L51.7133 27.2802L56.4939 32.0608C56.1874 32.2351 55.8497 32.2792 55.5782 32.1782L55.5292 32.2272L52.0241 28.7221L51.4585 29.2876L49.7059 27.5351L50.2715 26.9695ZM44.277 20.975L40.7718 17.4698L40.8222 17.4194C40.7216 17.1481 40.7646 16.8111 40.9382 16.5052L45.7188 21.2857L45.7609 21.3334C45.9526 21.5833 45.8838 21.9963 45.591 22.2891L46.0295 22.7276L45.464 23.2931L43.7114 21.5405L44.277 20.975ZM46.285 27.2796L46.2857 27.2802L46.3334 27.2381C46.5833 27.0463 46.9962 27.1151 47.2891 27.408L47.7275 26.9695L48.2931 27.5351L46.5405 29.2876L45.975 28.7221L42.4698 32.2272L42.4194 32.1768C42.1478 32.2776 41.8107 32.2342 41.5045 32.0601L46.285 27.2796ZM40.9389 31.4946C40.7647 31.1881 40.7205 30.8504 40.8215 30.5789L40.7725 30.5299L44.2776 27.0247L43.7121 26.4592L45.4647 24.7066L46.0302 25.2722L45.5917 25.7107C45.9041 26.0231 45.962 26.4727 45.7202 26.7147L40.9389 31.4946Z" fill="#3D4879"/>
</svg>
