<svg width="80" height="49" viewBox="0 0 80 49" fill="none" xmlns="http://www.w3.org/2000/svg">
<g id="Add Icon 2">
<g id="All">
<path id="Border" d="M60.352 24.4985L39.9985 44.8521L19.645 24.4985L39.9985 4.14502L60.352 24.4985ZM20.352 24.4985L39.9985 44.145L59.645 24.4985L39.9985 4.85205L20.352 24.4985ZM58.7056 24.4985L39.9985 43.2056L21.2915 24.4985L39.9985 5.7915L58.7056 24.4985ZM22.7056 24.4985L39.9985 41.7915L57.2915 24.4985L39.9985 7.20557L22.7056 24.4985Z" fill="#3D4879"/>
<path id="Icon" d="M43.4065 22.7876C43.1137 22.4948 43.0449 22.0818 43.2366 21.8319L43.2788 21.7843L48.0593 17.0037C48.2336 17.3102 48.2777 17.6478 48.1767 17.9193L48.2257 17.9684L44.7206 21.4735L45.2861 22.0391L43.5336 23.7916L42.968 23.2261L43.4065 22.7876ZM42.4577 19.2106L43.0233 19.7762L46.5284 16.271L46.5788 16.3214C46.8502 16.2208 47.1871 16.2638 47.4931 16.4374L42.7125 21.218L42.6649 21.2601C42.415 21.4519 42.002 21.3831 41.7092 21.0903L41.2707 21.5288L40.7051 20.9632L42.4577 19.2106ZM43.2781 27.2125L43.2359 27.1649C43.0442 26.915 43.113 26.502 43.4058 26.2092L42.9673 25.7707L43.5329 25.2052L45.2855 26.9577L44.7199 27.5233L48.2251 31.0284L48.1746 31.0788C48.2754 31.3504 48.232 31.6876 48.0579 31.9938L43.2774 27.2132L43.2781 27.2125ZM38.5838 25.913C37.8028 25.1319 37.8028 23.8656 38.5838 23.0845C39.3649 22.3035 40.6312 22.3035 41.4122 23.0845C42.1933 23.8656 42.1933 25.1319 41.4122 25.913C40.6312 26.694 39.3649 26.694 38.5838 25.913ZM32.503 16.4374C32.8094 16.2632 33.1471 16.2191 33.4186 16.3201L33.4677 16.271L36.9728 19.7762L37.5383 19.2106L39.2909 20.9632L38.7254 21.5288L38.2869 21.0903C37.9941 21.3831 37.5811 21.4519 37.3312 21.2601L37.2835 21.218L32.503 16.4374ZM41.27 27.468L41.7085 27.9065C42.0013 27.6137 42.4143 27.5449 42.6642 27.7367L42.7118 27.7788L47.4924 32.5593C47.1859 32.7336 46.8482 32.7777 46.5767 32.6767L46.5277 32.7258L43.0226 29.2206L42.457 29.7862L40.7044 28.0336L41.27 27.468ZM35.2755 21.4735L31.7703 17.9684L31.8207 17.918C31.7201 17.6466 31.7631 17.3097 31.9367 17.0037L36.7173 21.7843L36.7594 21.8319C36.9511 22.0818 36.8823 22.4948 36.5896 22.7876L37.028 23.2261L36.4625 23.7916L34.7099 22.0391L35.2755 21.4735ZM37.2835 27.7781L37.2842 27.7788L37.3319 27.7367C37.5818 27.5449 37.9947 27.6137 38.2876 27.9065L38.7261 27.468L39.2916 28.0336L37.539 29.7862L36.9735 29.2206L33.4683 32.7258L33.4179 32.6754C33.1463 32.7761 32.8092 32.7327 32.503 32.5587L37.2835 27.7781ZM31.9374 31.9931C31.7632 31.6867 31.7191 31.3489 31.82 31.0775L31.771 31.0284L35.2762 27.5233L34.7106 26.9577L36.4632 25.2052L37.0287 25.7707L36.5902 26.2092C36.9026 26.5216 36.9606 26.9713 36.7187 27.2132L31.9374 31.9931Z" fill="#3D4879"/>
</g>
</g>
</svg>
