<svg width="122" height="34" viewBox="0 0 122 34" fill="none" xmlns="http://www.w3.org/2000/svg">
<g id="Fissure Icon" clip-path="url(#clip0_16_321)">
<rect id="BlackBox" x="0.1" y="0.1" width="121.8" height="33.8" fill="black" stroke="#3D4879" stroke-width="0.2"/>
<rect id="BlueBox" y="30" width="122" height="4" fill="#3D4879"/>
<text id="Fissures" fill="#3D4879" xml:space="preserve" style="white-space: pre" font-family="Roboto Mono" font-size="12" font-weight="bold" letter-spacing="0em"><tspan x="41.1719" y="19.6611">Fissures</tspan></text>
<path id="Union" d="M25.9016 6C26.7714 6.00014 27.5973 6.38327 28.1585 7.04785L28.2503 7.1582C28.6405 7.62045 28.8548 8.2056 28.8548 8.81055V9.09668C28.8547 10.687 28.1393 12.1913 26.9085 13.1973C26.9732 13.2532 27.0383 13.309 27.1057 13.3623L27.2727 13.4951L30.1096 15.1748C30.3269 15.3035 30.5322 15.4524 30.721 15.6201C32.323 17.0433 32.4979 19.4846 31.1155 21.1221L30.4368 21.9258V20.1006C30.4368 18.8599 29.9978 17.659 29.1975 16.7109C28.97 16.4414 28.7156 16.1952 28.4387 15.9766L26.4827 14.4316C26.3101 14.3294 26.1471 14.216 25.9944 14.0938C24.7288 15.6815 24.5036 17.9141 25.5198 19.7529C26.5342 21.5553 28.2105 22.8922 30.1936 23.4795L30.2649 23.5H27.8938C25.9232 23.4999 24.0897 22.4911 23.0354 20.8262C22.588 20.1195 22.3 19.3235 22.1917 18.4941L22.0384 17.3203C21.9263 16.4613 22.059 15.5882 22.4202 14.8008L22.6292 14.3447C23.0609 13.4039 23.7458 12.6072 24.6018 12.042C24.3208 11.1253 24.3509 10.1113 24.7483 9.16992L24.9007 8.81055C24.9007 9.76614 25.1377 10.6925 25.5725 11.5166L25.6634 11.4727C26.6484 10.99 27.2727 9.98852 27.2727 8.8916C27.2726 7.71191 26.5517 6.65199 25.4544 6.21875L24.9007 6H25.9016Z" fill="#3D4879"/>
</g>
<defs>
<clipPath id="clip0_16_321">
<rect width="122" height="34" fill="white"/>
</clipPath>
</defs>
</svg>
