<svg width="122" height="34" viewBox="0 0 122 34" fill="none" xmlns="http://www.w3.org/2000/svg">
<g id="Fissure Icon">
<rect id="BlueBox" x="0.1" y="0.1" width="121.8" height="33.8" fill="black" stroke="#3D4879" stroke-width="0.2"/>
<rect id="BlackBox" y="30" width="122" height="4" fill="#3D4879"/>
<path id="Fissures" d="M47.3535 16.4668H43.6973V20H42.0449V11.4688H47.8105V12.8105H43.6973V15.1309H47.3535V16.4668ZM49.6387 13.6602H53.0898V18.6758H54.8066V20H49.6387V18.6758H51.4434V14.9902H49.6387V13.6602ZM51.3262 12.0371C51.3262 11.9121 51.3477 11.7969 51.3906 11.6914C51.4375 11.582 51.502 11.4883 51.584 11.4102C51.666 11.3359 51.7637 11.2773 51.877 11.2344C51.9941 11.1914 52.123 11.1699 52.2637 11.1699C52.5527 11.1699 52.7812 11.252 52.9492 11.416C53.1211 11.5762 53.207 11.7832 53.207 12.0371C53.207 12.291 53.1211 12.5 52.9492 12.6641C52.7812 12.8242 52.5527 12.9043 52.2637 12.9043C52.123 12.9043 51.9941 12.8828 51.877 12.8398C51.7637 12.7969 51.666 12.7363 51.584 12.6582C51.502 12.584 51.4375 12.4941 51.3906 12.3887C51.3477 12.2793 51.3262 12.1621 51.3262 12.0371ZM60.502 18.2598C60.502 18.1621 60.4785 18.0762 60.4316 18.002C60.3887 17.9277 60.3105 17.8574 60.1973 17.791C60.0801 17.7285 59.9258 17.6699 59.7344 17.6152C59.543 17.5605 59.3008 17.5059 59.0078 17.4512C58.6367 17.377 58.2969 17.2852 57.9883 17.1758C57.6836 17.0625 57.4219 16.9258 57.2031 16.7656C56.9844 16.6094 56.8125 16.4277 56.6875 16.2207C56.5664 16.0137 56.5059 15.7754 56.5059 15.5059C56.5059 15.2441 56.5684 14.9941 56.6934 14.7559C56.8184 14.5176 56.998 14.3086 57.2324 14.1289C57.4668 13.9492 57.752 13.8066 58.0879 13.7012C58.4238 13.5957 58.8027 13.543 59.2246 13.543C59.666 13.543 60.0625 13.5957 60.4141 13.7012C60.7656 13.8027 61.0645 13.9434 61.3105 14.123C61.5527 14.3066 61.7383 14.5234 61.8672 14.7734C61.9961 15.0234 62.0605 15.2949 62.0605 15.5879H60.4316C60.4316 15.4824 60.4141 15.3848 60.3789 15.2949C60.3438 15.2012 60.291 15.1172 60.2207 15.043C60.123 14.9453 59.9902 14.8672 59.8223 14.8086C59.6582 14.75 59.459 14.7207 59.2246 14.7207C59.0254 14.7207 58.8516 14.7402 58.7031 14.7793C58.5547 14.8184 58.4336 14.873 58.3398 14.9434C58.2539 15.0059 58.1875 15.0801 58.1406 15.166C58.0977 15.248 58.0762 15.3359 58.0762 15.4297C58.0762 15.5234 58.0957 15.6113 58.1348 15.6934C58.1738 15.7715 58.2441 15.8418 58.3457 15.9043C58.4434 15.9707 58.5781 16.0312 58.75 16.0859C58.9219 16.1367 59.1406 16.1816 59.4062 16.2207C59.7891 16.2832 60.1445 16.3633 60.4727 16.4609C60.8008 16.5586 61.084 16.6836 61.3223 16.8359C61.5605 16.9922 61.7461 17.1816 61.8789 17.4043C62.0156 17.623 62.084 17.8848 62.084 18.1895C62.084 18.4707 62.0156 18.7305 61.8789 18.9688C61.7461 19.2031 61.5566 19.4062 61.3105 19.5781C61.0605 19.75 60.7598 19.8848 60.4082 19.9824C60.0566 20.0762 59.6641 20.123 59.2305 20.123C58.7539 20.123 58.332 20.0605 57.9648 19.9355C57.6016 19.8105 57.2969 19.6465 57.0508 19.4434C56.8047 19.2441 56.6172 19.0176 56.4883 18.7637C56.3633 18.5059 56.3008 18.248 56.3008 17.9902H57.8535C57.8652 18.1621 57.9121 18.3105 57.9941 18.4355C58.0762 18.5566 58.1816 18.6543 58.3105 18.7285C58.4395 18.8066 58.5859 18.8633 58.75 18.8984C58.918 18.9336 59.0898 18.9512 59.2656 18.9512C59.4766 18.9512 59.6602 18.9336 59.8164 18.8984C59.9766 18.8594 60.1074 18.8086 60.209 18.7461C60.3066 18.6836 60.3789 18.6113 60.4258 18.5293C60.4766 18.4473 60.502 18.3574 60.502 18.2598ZM67.709 18.2598C67.709 18.1621 67.6855 18.0762 67.6387 18.002C67.5957 17.9277 67.5176 17.8574 67.4043 17.791C67.2871 17.7285 67.1328 17.6699 66.9414 17.6152C66.75 17.5605 66.5078 17.5059 66.2148 17.4512C65.8438 17.377 65.5039 17.2852 65.1953 17.1758C64.8906 17.0625 64.6289 16.9258 64.4102 16.7656C64.1914 16.6094 64.0195 16.4277 63.8945 16.2207C63.7734 16.0137 63.7129 15.7754 63.7129 15.5059C63.7129 15.2441 63.7754 14.9941 63.9004 14.7559C64.0254 14.5176 64.2051 14.3086 64.4395 14.1289C64.6738 13.9492 64.959 13.8066 65.2949 13.7012C65.6309 13.5957 66.0098 13.543 66.4316 13.543C66.873 13.543 67.2695 13.5957 67.6211 13.7012C67.9727 13.8027 68.2715 13.9434 68.5176 14.123C68.7598 14.3066 68.9453 14.5234 69.0742 14.7734C69.2031 15.0234 69.2676 15.2949 69.2676 15.5879H67.6387C67.6387 15.4824 67.6211 15.3848 67.5859 15.2949C67.5508 15.2012 67.498 15.1172 67.4277 15.043C67.3301 14.9453 67.1973 14.8672 67.0293 14.8086C66.8652 14.75 66.666 14.7207 66.4316 14.7207C66.2324 14.7207 66.0586 14.7402 65.9102 14.7793C65.7617 14.8184 65.6406 14.873 65.5469 14.9434C65.4609 15.0059 65.3945 15.0801 65.3477 15.166C65.3047 15.248 65.2832 15.3359 65.2832 15.4297C65.2832 15.5234 65.3027 15.6113 65.3418 15.6934C65.3809 15.7715 65.4512 15.8418 65.5527 15.9043C65.6504 15.9707 65.7852 16.0312 65.957 16.0859C66.1289 16.1367 66.3477 16.1816 66.6133 16.2207C66.9961 16.2832 67.3516 16.3633 67.6797 16.4609C68.0078 16.5586 68.291 16.6836 68.5293 16.8359C68.7676 16.9922 68.9531 17.1816 69.0859 17.4043C69.2227 17.623 69.291 17.8848 69.291 18.1895C69.291 18.4707 69.2227 18.7305 69.0859 18.9688C68.9531 19.2031 68.7637 19.4062 68.5176 19.5781C68.2676 19.75 67.9668 19.8848 67.6152 19.9824C67.2637 20.0762 66.8711 20.123 66.4375 20.123C65.9609 20.123 65.5391 20.0605 65.1719 19.9355C64.8086 19.8105 64.5039 19.6465 64.2578 19.4434C64.0117 19.2441 63.8242 19.0176 63.6953 18.7637C63.5703 18.5059 63.5078 18.248 63.5078 17.9902H65.0605C65.0723 18.1621 65.1191 18.3105 65.2012 18.4355C65.2832 18.5566 65.3887 18.6543 65.5176 18.7285C65.6465 18.8066 65.793 18.8633 65.957 18.8984C66.125 18.9336 66.2969 18.9512 66.4727 18.9512C66.6836 18.9512 66.8672 18.9336 67.0234 18.8984C67.1836 18.8594 67.3145 18.8086 67.416 18.7461C67.5137 18.6836 67.5859 18.6113 67.6328 18.5293C67.6836 18.4473 67.709 18.3574 67.709 18.2598ZM74.9629 20L74.8691 19.1094C74.6543 19.4258 74.3945 19.6738 74.0898 19.8535C73.7891 20.0332 73.459 20.123 73.0996 20.123C72.7715 20.123 72.4707 20.0723 72.1973 19.9707C71.9238 19.8691 71.6895 19.707 71.4941 19.4844C71.2988 19.2656 71.1465 18.9863 71.0371 18.6465C70.9316 18.3027 70.8789 17.8906 70.8789 17.4102V13.6602H72.5078V17.4219C72.5078 17.6797 72.5254 17.8965 72.5605 18.0723C72.5996 18.248 72.6602 18.3887 72.7422 18.4941C72.8242 18.6035 72.9316 18.6816 73.0645 18.7285C73.1973 18.7754 73.3594 18.7988 73.5508 18.7988C73.7227 18.7988 73.877 18.7812 74.0137 18.7461C74.1543 18.7109 74.2773 18.6602 74.3828 18.5938C74.4727 18.5352 74.5527 18.4648 74.623 18.3828C74.6934 18.3008 74.7539 18.209 74.8047 18.1074V13.6602H76.4395V20H74.9629ZM82.5859 13.543C82.832 13.543 83.0586 13.5605 83.2656 13.5957C83.4766 13.627 83.6465 13.6621 83.7754 13.7012L83.5352 15.3242C83.3203 15.2734 83.0996 15.2363 82.873 15.2129C82.6504 15.1855 82.4375 15.1719 82.2344 15.1719C82.0234 15.1719 81.832 15.1914 81.6602 15.2305C81.4922 15.2656 81.3418 15.3203 81.209 15.3945C81.0488 15.4805 80.9121 15.5898 80.7988 15.7227C80.6855 15.8555 80.5918 16.0117 80.5176 16.1914V20H78.8887V13.6602H80.4062L80.4707 14.5566L80.4824 14.6973C80.7402 14.3379 81.0488 14.0566 81.4082 13.8535C81.7676 13.6465 82.1602 13.543 82.5859 13.543ZM88.3164 20.1172C87.8281 20.1172 87.3848 20.0371 86.9863 19.877C86.5879 19.7168 86.2461 19.498 85.9609 19.2207C85.6758 18.9473 85.4551 18.625 85.2988 18.2539C85.1465 17.8789 85.0703 17.4785 85.0703 17.0527V16.8184C85.0703 16.334 85.1465 15.8926 85.2988 15.4941C85.4512 15.0918 85.6641 14.7461 85.9375 14.457C86.2109 14.168 86.5352 13.9434 86.9102 13.7832C87.2852 13.623 87.6934 13.543 88.1348 13.543C88.5918 13.543 88.998 13.6191 89.3535 13.7715C89.7129 13.9199 90.0176 14.1309 90.2676 14.4043C90.5137 14.6777 90.7012 15.0078 90.8301 15.3945C90.959 15.7773 91.0234 16.2012 91.0234 16.666V17.3574H86.7227V17.375C86.7773 17.6289 86.8477 17.834 86.9336 17.9902C87.0195 18.1426 87.1348 18.2812 87.2793 18.4062C87.4277 18.5352 87.5977 18.6348 87.7891 18.7051C87.9805 18.7754 88.1895 18.8105 88.416 18.8105C88.7363 18.8105 89.0469 18.75 89.3477 18.6289C89.6484 18.5078 89.8926 18.3262 90.0801 18.084L90.8945 18.9629C90.6875 19.2559 90.3594 19.5215 89.9102 19.7598C89.4609 19.998 88.9297 20.1172 88.3164 20.1172ZM88.123 14.8613C87.9395 14.8613 87.7715 14.8945 87.6191 14.9609C87.4668 15.0234 87.334 15.1152 87.2207 15.2363C87.1035 15.3574 87.0059 15.502 86.9277 15.6699C86.8496 15.8379 86.791 16.0254 86.752 16.2324H89.4238V16.1035C89.4238 15.9316 89.3926 15.7695 89.3301 15.6172C89.2676 15.4648 89.1816 15.332 89.0723 15.2188C88.9629 15.1094 88.8281 15.0234 88.668 14.9609C88.5117 14.8945 88.3301 14.8613 88.123 14.8613ZM96.5371 18.2598C96.5371 18.1621 96.5137 18.0762 96.4668 18.002C96.4238 17.9277 96.3457 17.8574 96.2324 17.791C96.1152 17.7285 95.9609 17.6699 95.7695 17.6152C95.5781 17.5605 95.3359 17.5059 95.043 17.4512C94.6719 17.377 94.332 17.2852 94.0234 17.1758C93.7188 17.0625 93.457 16.9258 93.2383 16.7656C93.0195 16.6094 92.8477 16.4277 92.7227 16.2207C92.6016 16.0137 92.541 15.7754 92.541 15.5059C92.541 15.2441 92.6035 14.9941 92.7285 14.7559C92.8535 14.5176 93.0332 14.3086 93.2676 14.1289C93.502 13.9492 93.7871 13.8066 94.123 13.7012C94.459 13.5957 94.8379 13.543 95.2598 13.543C95.7012 13.543 96.0977 13.5957 96.4492 13.7012C96.8008 13.8027 97.0996 13.9434 97.3457 14.123C97.5879 14.3066 97.7734 14.5234 97.9023 14.7734C98.0312 15.0234 98.0957 15.2949 98.0957 15.5879H96.4668C96.4668 15.4824 96.4492 15.3848 96.4141 15.2949C96.3789 15.2012 96.3262 15.1172 96.2559 15.043C96.1582 14.9453 96.0254 14.8672 95.8574 14.8086C95.6934 14.75 95.4941 14.7207 95.2598 14.7207C95.0605 14.7207 94.8867 14.7402 94.7383 14.7793C94.5898 14.8184 94.4688 14.873 94.375 14.9434C94.2891 15.0059 94.2227 15.0801 94.1758 15.166C94.1328 15.248 94.1113 15.3359 94.1113 15.4297C94.1113 15.5234 94.1309 15.6113 94.1699 15.6934C94.209 15.7715 94.2793 15.8418 94.3809 15.9043C94.4785 15.9707 94.6133 16.0312 94.7852 16.0859C94.957 16.1367 95.1758 16.1816 95.4414 16.2207C95.8242 16.2832 96.1797 16.3633 96.5078 16.4609C96.8359 16.5586 97.1191 16.6836 97.3574 16.8359C97.5957 16.9922 97.7812 17.1816 97.9141 17.4043C98.0508 17.623 98.1191 17.8848 98.1191 18.1895C98.1191 18.4707 98.0508 18.7305 97.9141 18.9688C97.7812 19.2031 97.5918 19.4062 97.3457 19.5781C97.0957 19.75 96.7949 19.8848 96.4434 19.9824C96.0918 20.0762 95.6992 20.123 95.2656 20.123C94.7891 20.123 94.3672 20.0605 94 19.9355C93.6367 19.8105 93.332 19.6465 93.0859 19.4434C92.8398 19.2441 92.6523 19.0176 92.5234 18.7637C92.3984 18.5059 92.3359 18.248 92.3359 17.9902H93.8887C93.9004 18.1621 93.9473 18.3105 94.0293 18.4355C94.1113 18.5566 94.2168 18.6543 94.3457 18.7285C94.4746 18.8066 94.6211 18.8633 94.7852 18.8984C94.9531 18.9336 95.125 18.9512 95.3008 18.9512C95.5117 18.9512 95.6953 18.9336 95.8516 18.8984C96.0117 18.8594 96.1426 18.8086 96.2441 18.7461C96.3418 18.6836 96.4141 18.6113 96.4609 18.5293C96.5117 18.4473 96.5371 18.3574 96.5371 18.2598Z" fill="#3D4879"/>
<path id="Icon" d="M25.9016 6C26.7714 6.00014 27.5973 6.38327 28.1585 7.04785L28.2503 7.1582C28.6405 7.62045 28.8548 8.2056 28.8548 8.81055V9.09668C28.8547 10.687 28.1393 12.1913 26.9085 13.1973C26.9732 13.2532 27.0383 13.309 27.1057 13.3623L27.2727 13.4951L30.1096 15.1748C30.3269 15.3035 30.5322 15.4524 30.721 15.6201C32.323 17.0433 32.4979 19.4846 31.1155 21.1221L30.4368 21.9258V20.1006C30.4368 18.8599 29.9978 17.659 29.1975 16.7109C28.97 16.4414 28.7156 16.1952 28.4387 15.9766L26.4827 14.4316C26.3101 14.3294 26.1471 14.216 25.9944 14.0938C24.7288 15.6815 24.5036 17.9141 25.5198 19.7529C26.5342 21.5553 28.2105 22.8922 30.1936 23.4795L30.2649 23.5H27.8938C25.9232 23.4999 24.0897 22.4911 23.0354 20.8262C22.588 20.1195 22.3 19.3235 22.1917 18.4941L22.0384 17.3203C21.9263 16.4613 22.059 15.5882 22.4202 14.8008L22.6292 14.3447C23.0609 13.4039 23.7458 12.6072 24.6018 12.042C24.3208 11.1253 24.3509 10.1113 24.7483 9.16992L24.9007 8.81055C24.9007 9.76614 25.1377 10.6925 25.5725 11.5166L25.6634 11.4727C26.6484 10.99 27.2727 9.98852 27.2727 8.8916C27.2726 7.71191 26.5517 6.65199 25.4544 6.21875L24.9007 6H25.9016Z" fill="#3D4879"/>
</g>
</svg>
