<svg width="80" height="49" viewBox="0 0 80 49" fill="none" xmlns="http://www.w3.org/2000/svg">
<g id="Settings Icon (Focused) 2" clip-path="url(#clip0_107_33)">
<rect id="BackBox" width="80" height="49" fill="#3D4879"/>
<path id="Border" d="M60.707 24.3535L40.3535 44.707L20 24.3535L40.3535 4L60.707 24.3535ZM20.707 24.3535L40.3535 44L60 24.3535L40.3535 4.70703L20.707 24.3535ZM59.0605 24.3535L40.3535 43.0605L21.6465 24.3535L40.3535 5.64648L59.0605 24.3535ZM23.0605 24.3535L40.3535 41.6465L57.6465 24.3535L40.3535 7.06055L23.0605 24.3535Z" fill="#A2AECB"/>
<path id="Icon" d="M41.3535 17.4258C41.9099 17.5054 42.445 17.6501 42.9512 17.8525L43.9873 16.0596L45.7197 17.0596L44.6826 18.8545C45.1169 19.1968 45.5092 19.5893 45.8516 20.0234L47.6475 18.9873L48.6475 20.7197L46.8535 21.7549C47.0562 22.2614 47.2016 22.7967 47.2812 23.3535H49.3535V25.3535H47.2812C47.2016 25.9101 47.056 26.4449 46.8535 26.9512L48.6475 27.9873L47.6475 29.7197L45.8516 28.6826C45.5092 29.1169 45.1169 29.5092 44.6826 29.8516L45.7197 31.6475L43.9873 32.6475L42.9512 30.8525C42.4449 31.0551 41.9101 31.2006 41.3535 31.2803V33.3535H39.3535V31.2803C38.7966 31.2006 38.2614 31.0553 37.7549 30.8525L36.7197 32.6475L34.9873 31.6475L36.0234 29.8516C35.5893 29.5092 35.1968 29.1169 34.8545 28.6826L33.0596 29.7197L32.0596 27.9873L33.8525 26.9512C33.6501 26.445 33.5054 25.9099 33.4258 25.3535H31.3535V23.3535H33.4258C33.5054 22.7968 33.6499 22.2613 33.8525 21.7549L32.0596 20.7197L33.0596 18.9873L34.8545 20.0234C35.1968 19.5893 35.5893 19.1968 36.0234 18.8545L34.9873 17.0596L36.7197 16.0596L37.7549 17.8525C38.2613 17.6499 38.7968 17.5054 39.3535 17.4258V15.3535H41.3535V17.4258ZM39.4951 18.416C39.0175 18.4844 38.5587 18.6081 38.126 18.7812L37.3223 19.1025L36.8896 18.3545L37.3223 19.1035L36.6426 19.6396C36.2701 19.9333 35.9333 20.2701 35.6396 20.6426L35.1035 21.3223L34.3545 20.8896L34.3525 20.8887L35.1025 21.3223L34.7812 22.126C34.6081 22.5587 34.4844 23.0175 34.416 23.4951L34.293 24.3535L34.416 25.2119C34.4843 25.6889 34.6081 26.1471 34.7812 26.5801L35.1025 27.3838L34.3525 27.8174L33.4248 28.3525L34.3545 27.8164L35.1035 27.3838L35.6396 28.0635C35.9332 28.4358 36.27 28.7725 36.6426 29.0664L37.3223 29.6016L37.3213 29.6025L38.126 29.9238C38.5598 30.0974 39.0183 30.2218 39.4951 30.29L40.3535 30.4131L41.2119 30.29C41.688 30.2219 42.1461 30.0975 42.5801 29.9238L43.3838 29.6025L44.0635 29.0664C44.436 28.7727 44.7727 28.436 45.0664 28.0635L45.6025 27.3838L46.3516 27.8164L47.2812 28.3525L46.3535 27.8174L45.6035 27.3838L45.9248 26.5801C46.0984 26.146 46.2229 25.6879 46.291 25.2119L46.4141 24.3535L46.291 23.4951C46.2228 23.0184 46.0984 22.5598 45.9248 22.126L45.6035 21.3223L46.3535 20.8887L46.3516 20.8896L45.6016 21.3223L45.0664 20.6426C44.7725 20.27 44.4358 19.9332 44.0635 19.6396L43.3838 19.1035L43.8164 18.3545L43.3838 19.1025L42.5801 18.7812C42.1471 18.6081 41.6889 18.4843 41.2119 18.416L40.3535 18.293L39.4951 18.416ZM40.3535 19.3535C43.1149 19.3535 45.3535 21.5921 45.3535 24.3535C45.3535 27.1149 43.1149 29.3535 40.3535 29.3535C37.5921 29.3535 35.3535 27.1149 35.3535 24.3535C35.3535 21.5921 37.5921 19.3535 40.3535 19.3535ZM40.3535 19.8535C37.8682 19.8535 35.8535 21.8682 35.8535 24.3535C35.8535 26.8388 37.8682 28.8535 40.3535 28.8535C42.8388 28.8535 44.8535 26.8388 44.8535 24.3535C44.8535 21.8682 42.8388 19.8535 40.3535 19.8535Z" fill="#A2AECB"/>
</g>
<defs>
<clipPath id="clip0_107_33">
<rect width="80" height="49" fill="white"/>
</clipPath>
</defs>
</svg>
