<svg width="111" height="34" viewBox="0 0 111 34" fill="none" xmlns="http://www.w3.org/2000/svg">
<path d="M106.188 8.2002L110.773 17L106.188 25.7998H0.200195V8.2002H106.188Z" fill="#3D4879" stroke="#3D4879" stroke-width="0.4"/>
<path d="M18.6211 21L16.043 12.4688H17.8594L19.3066 18.041L19.4531 18.6152L19.6113 18.0352L21.0645 12.4688H22.8809L20.2969 21H18.6211ZM23.6719 17.7715C23.6719 17.3105 23.7383 16.8848 23.8711 16.4941C24.0039 16.0996 24.1992 15.7578 24.457 15.4688C24.7109 15.1797 25.0215 14.9531 25.3887 14.7891C25.7598 14.625 26.1836 14.543 26.6602 14.543C27.1367 14.543 27.5605 14.625 27.9316 14.7891C28.3027 14.9531 28.6172 15.1797 28.875 15.4688C29.1289 15.7578 29.3223 16.0996 29.4551 16.4941C29.5879 16.8848 29.6543 17.3105 29.6543 17.7715V17.8945C29.6543 18.3594 29.5879 18.7891 29.4551 19.1836C29.3223 19.5742 29.1289 19.9141 28.875 20.2031C28.6211 20.4922 28.3086 20.7188 27.9375 20.8828C27.5664 21.043 27.1445 21.123 26.6719 21.123C26.1953 21.123 25.7695 21.043 25.3945 20.8828C25.0234 20.7188 24.7109 20.4922 24.457 20.2031C24.1992 19.9141 24.0039 19.5742 23.8711 19.1836C23.7383 18.7891 23.6719 18.3594 23.6719 17.8945V17.7715ZM25.3008 17.8945C25.3008 18.1602 25.3262 18.4102 25.377 18.6445C25.4277 18.875 25.5078 19.0762 25.6172 19.248C25.7266 19.4238 25.8672 19.5625 26.0391 19.6641C26.2148 19.7656 26.4258 19.8164 26.6719 19.8164C26.9102 19.8164 27.1152 19.7656 27.2871 19.6641C27.459 19.5625 27.5996 19.4238 27.709 19.248C27.8145 19.0762 27.8926 18.875 27.9434 18.6445C27.9941 18.4102 28.0195 18.1602 28.0195 17.8945V17.7715C28.0195 17.5137 27.9941 17.2695 27.9434 17.0391C27.8926 16.8086 27.8145 16.6055 27.709 16.4297C27.5996 16.2539 27.459 16.1152 27.2871 16.0137C27.1152 15.9121 26.9062 15.8613 26.6602 15.8613C26.418 15.8613 26.2109 15.9121 26.0391 16.0137C25.8672 16.1152 25.7266 16.2539 25.6172 16.4297C25.5078 16.6055 25.4277 16.8086 25.377 17.0391C25.3262 17.2695 25.3008 17.5137 25.3008 17.7715V17.8945ZM31.5352 14.6602H34.9863V19.6758H36.7031V21H31.5352V19.6758H33.3398V15.9902H31.5352V14.6602ZM33.2227 13.0371C33.2227 12.9121 33.2441 12.7969 33.2871 12.6914C33.334 12.582 33.3984 12.4883 33.4805 12.4102C33.5625 12.3359 33.6602 12.2773 33.7734 12.2344C33.8906 12.1914 34.0195 12.1699 34.1602 12.1699C34.4492 12.1699 34.6777 12.252 34.8457 12.416C35.0176 12.5762 35.1035 12.7832 35.1035 13.0371C35.1035 13.291 35.0176 13.5 34.8457 13.6641C34.6777 13.8242 34.4492 13.9043 34.1602 13.9043C34.0195 13.9043 33.8906 13.8828 33.7734 13.8398C33.6602 13.7969 33.5625 13.7363 33.4805 13.6582C33.3984 13.584 33.334 13.4941 33.2871 13.3887C33.2441 13.2793 33.2227 13.1621 33.2227 13.0371ZM38.1387 17.7832C38.1387 17.3027 38.1934 16.8633 38.3027 16.4648C38.416 16.0664 38.5801 15.7246 38.7949 15.4395C39.0098 15.1543 39.2695 14.9336 39.5742 14.7773C39.8828 14.6211 40.2344 14.543 40.6289 14.543C40.9609 14.543 41.252 14.6035 41.502 14.7246C41.7559 14.8418 41.9805 15.0098 42.1758 15.2285V12H43.8105V21H42.3398L42.2578 20.3379C42.0586 20.584 41.8242 20.7754 41.5547 20.9121C41.2852 21.0488 40.9727 21.1172 40.6172 21.1172C40.2305 21.1172 39.8828 21.0371 39.5742 20.877C39.2695 20.7129 39.0117 20.4883 38.8008 20.2031C38.5859 19.918 38.4219 19.5801 38.3086 19.1895C38.1953 18.7949 38.1387 18.3672 38.1387 17.9062V17.7832ZM39.7676 17.9062C39.7676 18.1719 39.7891 18.4199 39.832 18.6504C39.8789 18.877 39.9531 19.0742 40.0547 19.2422C40.1562 19.4141 40.2871 19.5488 40.4473 19.6465C40.6074 19.7441 40.8027 19.793 41.0332 19.793C41.3145 19.793 41.5469 19.7324 41.7305 19.6113C41.918 19.4902 42.0664 19.3242 42.1758 19.1133V16.5469C42.0664 16.332 41.9199 16.166 41.7363 16.0488C41.5527 15.9277 41.3223 15.8672 41.0449 15.8672C40.8145 15.8672 40.6172 15.918 40.4531 16.0195C40.293 16.1172 40.1621 16.252 40.0605 16.4238C39.959 16.5996 39.8848 16.8047 39.8379 17.0391C39.791 17.2695 39.7676 17.5176 39.7676 17.7832V17.9062ZM57.0938 18.7734C57.0938 18.6211 57.0664 18.4785 57.0117 18.3457C56.9609 18.2129 56.873 18.0879 56.748 17.9707C56.6191 17.8574 56.4512 17.7539 56.2441 17.6602C56.041 17.5625 55.7871 17.4727 55.4824 17.3906C55.0098 17.2617 54.5938 17.1055 54.2344 16.9219C53.8789 16.7383 53.5879 16.5371 53.3613 16.3184C53.1348 16.0996 52.9629 15.8574 52.8457 15.5918C52.7324 15.3262 52.6758 15.0371 52.6758 14.7246C52.6758 14.3652 52.752 14.0391 52.9043 13.7461C53.0566 13.4531 53.2676 13.2031 53.5371 12.9961C53.8066 12.7891 54.125 12.6309 54.4922 12.5215C54.8594 12.4082 55.2578 12.3516 55.6875 12.3516C56.1328 12.3516 56.5391 12.416 56.9062 12.5449C57.2773 12.6738 57.5957 12.8535 57.8613 13.084C58.127 13.3184 58.334 13.5957 58.4824 13.916C58.6309 14.2363 58.7051 14.5879 58.7051 14.9707H57.0996C57.0918 14.7793 57.0566 14.6035 56.9941 14.4434C56.9355 14.2832 56.8477 14.1445 56.7305 14.0273C56.6094 13.9141 56.459 13.8262 56.2793 13.7637C56.1035 13.6973 55.8965 13.6641 55.6582 13.6641C55.4395 13.6641 55.2441 13.6914 55.0723 13.7461C54.9043 13.7969 54.7617 13.8691 54.6445 13.9629C54.5273 14.0605 54.4375 14.1758 54.375 14.3086C54.3164 14.4375 54.2871 14.5781 54.2871 14.7305C54.2871 14.8906 54.3262 15.0352 54.4043 15.1641C54.4863 15.293 54.6035 15.4082 54.7559 15.5098C54.9082 15.6152 55.0918 15.7109 55.3066 15.7969C55.5254 15.8828 55.7715 15.9629 56.0449 16.0371C56.3379 16.1191 56.6172 16.2188 56.8828 16.3359C57.1484 16.4531 57.3926 16.5879 57.6152 16.7402C57.9512 16.9902 58.2188 17.2812 58.418 17.6133C58.6172 17.9453 58.7168 18.3281 58.7168 18.7617C58.7168 19.1367 58.6406 19.4707 58.4883 19.7637C58.3398 20.0527 58.1328 20.2969 57.8672 20.4961C57.6016 20.6992 57.2852 20.8535 56.918 20.959C56.5508 21.0605 56.1504 21.1113 55.7168 21.1113C55.291 21.1113 54.8691 21.0488 54.4512 20.9238C54.0371 20.7949 53.6758 20.6074 53.3672 20.3613C53.0742 20.1191 52.8418 19.834 52.6699 19.5059C52.502 19.1777 52.418 18.793 52.418 18.3516H54.0352C54.043 18.6094 54.0879 18.8301 54.1699 19.0137C54.252 19.1973 54.3672 19.3477 54.5156 19.4648C54.6602 19.582 54.834 19.668 55.0371 19.7227C55.2441 19.7773 55.4707 19.8047 55.7168 19.8047C55.9355 19.8047 56.1289 19.7793 56.2969 19.7285C56.4688 19.6777 56.6133 19.6074 56.7305 19.5176C56.8477 19.4277 56.9375 19.3203 57 19.1953C57.0625 19.0664 57.0938 18.9258 57.0938 18.7734ZM62.918 13.1074V14.6602H65.2852V15.8613H62.918V18.5859C62.918 18.8164 62.9434 19.0098 62.9941 19.166C63.0488 19.3184 63.125 19.4395 63.2227 19.5293C63.3203 19.623 63.4375 19.6895 63.5742 19.7285C63.7148 19.7676 63.8711 19.7871 64.043 19.7871C64.168 19.7871 64.2949 19.7812 64.4238 19.7695C64.5566 19.7578 64.6836 19.7422 64.8047 19.7227C64.9219 19.707 65.0312 19.6895 65.1328 19.6699C65.2383 19.6504 65.3281 19.6309 65.4023 19.6113L65.5605 20.7305C65.4473 20.7969 65.3145 20.8555 65.1621 20.9062C65.0098 20.9531 64.8477 20.9922 64.6758 21.0234C64.5039 21.0547 64.3242 21.0781 64.1367 21.0938C63.9531 21.1133 63.7715 21.123 63.5918 21.123C63.2441 21.123 62.9277 21.0781 62.6426 20.9883C62.3613 20.8945 62.1211 20.75 61.9219 20.5547C61.7188 20.3633 61.5625 20.1191 61.4531 19.8223C61.3438 19.5215 61.2891 19.1621 61.2891 18.7441V15.8613H59.8418V14.6602H61.2891V13.1074H62.918ZM66.9141 17.7715C66.9141 17.3105 66.9805 16.8848 67.1133 16.4941C67.2461 16.0996 67.4414 15.7578 67.6992 15.4688C67.9531 15.1797 68.2637 14.9531 68.6309 14.7891C69.002 14.625 69.4258 14.543 69.9023 14.543C70.3789 14.543 70.8027 14.625 71.1738 14.7891C71.5449 14.9531 71.8594 15.1797 72.1172 15.4688C72.3711 15.7578 72.5645 16.0996 72.6973 16.4941C72.8301 16.8848 72.8965 17.3105 72.8965 17.7715V17.8945C72.8965 18.3594 72.8301 18.7891 72.6973 19.1836C72.5645 19.5742 72.3711 19.9141 72.1172 20.2031C71.8633 20.4922 71.5508 20.7188 71.1797 20.8828C70.8086 21.043 70.3867 21.123 69.9141 21.123C69.4375 21.123 69.0117 21.043 68.6367 20.8828C68.2656 20.7188 67.9531 20.4922 67.6992 20.2031C67.4414 19.9141 67.2461 19.5742 67.1133 19.1836C66.9805 18.7891 66.9141 18.3594 66.9141 17.8945V17.7715ZM68.543 17.8945C68.543 18.1602 68.5684 18.4102 68.6191 18.6445C68.6699 18.875 68.75 19.0762 68.8594 19.248C68.9688 19.4238 69.1094 19.5625 69.2812 19.6641C69.457 19.7656 69.668 19.8164 69.9141 19.8164C70.1523 19.8164 70.3574 19.7656 70.5293 19.6641C70.7012 19.5625 70.8418 19.4238 70.9512 19.248C71.0566 19.0762 71.1348 18.875 71.1855 18.6445C71.2363 18.4102 71.2617 18.1602 71.2617 17.8945V17.7715C71.2617 17.5137 71.2363 17.2695 71.1855 17.0391C71.1348 16.8086 71.0566 16.6055 70.9512 16.4297C70.8418 16.2539 70.7012 16.1152 70.5293 16.0137C70.3574 15.9121 70.1484 15.8613 69.9023 15.8613C69.6602 15.8613 69.4531 15.9121 69.2812 16.0137C69.1094 16.1152 68.9688 16.2539 68.8594 16.4297C68.75 16.6055 68.6699 16.8086 68.6191 17.0391C68.5684 17.2695 68.543 17.5137 68.543 17.7715V17.8945ZM78.8965 14.543C79.1426 14.543 79.3691 14.5605 79.5762 14.5957C79.7871 14.627 79.957 14.6621 80.0859 14.7012L79.8457 16.3242C79.6309 16.2734 79.4102 16.2363 79.1836 16.2129C78.9609 16.1855 78.748 16.1719 78.5449 16.1719C78.334 16.1719 78.1426 16.1914 77.9707 16.2305C77.8027 16.2656 77.6523 16.3203 77.5195 16.3945C77.3594 16.4805 77.2227 16.5898 77.1094 16.7227C76.9961 16.8555 76.9023 17.0117 76.8281 17.1914V21H75.1992V14.6602H76.7168L76.7812 15.5566L76.793 15.6973C77.0508 15.3379 77.3594 15.0566 77.7188 14.8535C78.0781 14.6465 78.4707 14.543 78.8965 14.543ZM82.5645 14.6602L82.6113 15.4277C82.7324 15.1543 82.8984 14.9395 83.1094 14.7832C83.3242 14.623 83.584 14.543 83.8887 14.543C84.0371 14.543 84.1699 14.5605 84.2871 14.5957C84.4043 14.6309 84.5059 14.6855 84.5918 14.7598C84.6582 14.8145 84.7148 14.8809 84.7617 14.959C84.8125 15.0332 84.8555 15.1191 84.8906 15.2168C84.9453 15.123 85.0059 15.0391 85.0723 14.9648C85.1426 14.8867 85.2188 14.8203 85.3008 14.7656C85.4023 14.6953 85.5176 14.6406 85.6465 14.6016C85.7754 14.5625 85.916 14.543 86.0684 14.543C86.2598 14.543 86.4375 14.5781 86.6016 14.6484C86.7695 14.7188 86.916 14.8301 87.041 14.9824C87.1621 15.1387 87.2559 15.3398 87.3223 15.5859C87.3926 15.8281 87.4277 16.125 87.4277 16.4766V21H85.9453V16.4707C85.9453 16.3496 85.9316 16.25 85.9043 16.1719C85.8809 16.0938 85.8477 16.0312 85.8047 15.9844C85.7617 15.9414 85.7109 15.9121 85.6523 15.8965C85.5977 15.877 85.541 15.8672 85.4824 15.8672C85.4199 15.8672 85.3633 15.875 85.3125 15.8906C85.2656 15.9062 85.2207 15.9277 85.1777 15.9551C85.1426 15.9824 85.1113 16.0137 85.084 16.0488C85.0566 16.0801 85.0332 16.1172 85.0137 16.1602C85.0137 16.168 85.0137 16.1855 85.0137 16.2129C85.0137 16.2402 85.0137 16.2773 85.0137 16.3242V21H83.5781V16.4648C83.5781 16.3438 83.5664 16.2441 83.543 16.166C83.5195 16.0879 83.4883 16.0273 83.4492 15.9844C83.4062 15.9414 83.3574 15.9121 83.3027 15.8965C83.248 15.877 83.1895 15.8672 83.127 15.8672C83.0566 15.8672 82.9941 15.8789 82.9395 15.9023C82.8848 15.9258 82.8359 15.959 82.793 16.002C82.7617 16.0332 82.7344 16.0703 82.7109 16.1133C82.6875 16.1562 82.666 16.2031 82.6465 16.2539V21H81.1641V14.6602H82.5645ZM92.8477 19.2598C92.8477 19.1621 92.8242 19.0762 92.7773 19.002C92.7344 18.9277 92.6562 18.8574 92.543 18.791C92.4258 18.7285 92.2715 18.6699 92.0801 18.6152C91.8887 18.5605 91.6465 18.5059 91.3535 18.4512C90.9824 18.377 90.6426 18.2852 90.334 18.1758C90.0293 18.0625 89.7676 17.9258 89.5488 17.7656C89.3301 17.6094 89.1582 17.4277 89.0332 17.2207C88.9121 17.0137 88.8516 16.7754 88.8516 16.5059C88.8516 16.2441 88.9141 15.9941 89.0391 15.7559C89.1641 15.5176 89.3438 15.3086 89.5781 15.1289C89.8125 14.9492 90.0977 14.8066 90.4336 14.7012C90.7695 14.5957 91.1484 14.543 91.5703 14.543C92.0117 14.543 92.4082 14.5957 92.7598 14.7012C93.1113 14.8027 93.4102 14.9434 93.6562 15.123C93.8984 15.3066 94.084 15.5234 94.2129 15.7734C94.3418 16.0234 94.4062 16.2949 94.4062 16.5879H92.7773C92.7773 16.4824 92.7598 16.3848 92.7246 16.2949C92.6895 16.2012 92.6367 16.1172 92.5664 16.043C92.4688 15.9453 92.3359 15.8672 92.168 15.8086C92.0039 15.75 91.8047 15.7207 91.5703 15.7207C91.3711 15.7207 91.1973 15.7402 91.0488 15.7793C90.9004 15.8184 90.7793 15.873 90.6855 15.9434C90.5996 16.0059 90.5332 16.0801 90.4863 16.166C90.4434 16.248 90.4219 16.3359 90.4219 16.4297C90.4219 16.5234 90.4414 16.6113 90.4805 16.6934C90.5195 16.7715 90.5898 16.8418 90.6914 16.9043C90.7891 16.9707 90.9238 17.0312 91.0957 17.0859C91.2676 17.1367 91.4863 17.1816 91.752 17.2207C92.1348 17.2832 92.4902 17.3633 92.8184 17.4609C93.1465 17.5586 93.4297 17.6836 93.668 17.8359C93.9062 17.9922 94.0918 18.1816 94.2246 18.4043C94.3613 18.623 94.4297 18.8848 94.4297 19.1895C94.4297 19.4707 94.3613 19.7305 94.2246 19.9688C94.0918 20.2031 93.9023 20.4062 93.6562 20.5781C93.4062 20.75 93.1055 20.8848 92.7539 20.9824C92.4023 21.0762 92.0098 21.123 91.5762 21.123C91.0996 21.123 90.6777 21.0605 90.3105 20.9355C89.9473 20.8105 89.6426 20.6465 89.3965 20.4434C89.1504 20.2441 88.9629 20.0176 88.834 19.7637C88.709 19.5059 88.6465 19.248 88.6465 18.9902H90.1992C90.2109 19.1621 90.2578 19.3105 90.3398 19.4355C90.4219 19.5566 90.5273 19.6543 90.6562 19.7285C90.7852 19.8066 90.9316 19.8633 91.0957 19.8984C91.2637 19.9336 91.4355 19.9512 91.6113 19.9512C91.8223 19.9512 92.0059 19.9336 92.1621 19.8984C92.3223 19.8594 92.4531 19.8086 92.5547 19.7461C92.6523 19.6836 92.7246 19.6113 92.7715 19.5293C92.8223 19.4473 92.8477 19.3574 92.8477 19.2598Z" fill="#A2AECB"/>
</svg>
