<svg width="80" height="49" viewBox="0 0 80 49" fill="none" xmlns="http://www.w3.org/2000/svg">
<g id="Add Icon (Focused) 2" clip-path="url(#clip0_107_24)">
<rect id="BackBox" width="80" height="49" fill="#3D4879"/>
<path id="Border" d="M60.707 24.3535L40.3535 44.707L20 24.3535L40.3535 4L60.707 24.3535ZM20.707 24.3535L40.3535 44L60 24.3535L40.3535 4.70703L20.707 24.3535ZM59.0605 24.3535L40.3535 43.0605L21.6465 24.3535L40.3535 5.64648L59.0605 24.3535ZM23.0605 24.3535L40.3535 41.6465L57.6465 24.3535L40.3535 7.06055L23.0605 24.3535Z" fill="#A2AECB"/>
<path id="Icon" d="M43.7615 22.6426C43.4687 22.3498 43.3999 21.9368 43.5916 21.6869L43.6338 21.6392L48.4143 16.8587C48.5886 17.1651 48.6327 17.5028 48.5317 17.7743L48.5807 17.8233L45.0756 21.3285L45.6411 21.894L43.8886 23.6466L43.323 23.0811L43.7615 22.6426ZM42.8127 19.0656L43.3783 19.6312L46.8834 16.126L46.9338 16.1764C47.2052 16.0758 47.5421 16.1188 47.8481 16.2924L43.0675 21.073L43.0199 21.1151C42.77 21.3069 42.357 21.2381 42.0642 20.9452L41.6257 21.3837L41.0601 20.8182L42.8127 19.0656ZM43.6331 27.0675L43.5909 27.0199C43.3992 26.77 43.468 26.357 43.7608 26.0642L43.3223 25.6257L43.8879 25.0601L45.6404 26.8127L45.0749 27.3783L48.58 30.8834L48.5296 30.9338C48.6304 31.2054 48.587 31.5426 48.4129 31.8488L43.6324 27.0682L43.6331 27.0675ZM38.9388 25.7679C38.1578 24.9869 38.1578 23.7206 38.9388 22.9395C39.7199 22.1585 40.9862 22.1585 41.7672 22.9395C42.5483 23.7206 42.5483 24.9869 41.7672 25.7679C40.9862 26.549 39.7199 26.549 38.9388 25.7679ZM32.858 16.2924C33.1644 16.1182 33.5021 16.0741 33.7736 16.175L33.8226 16.126L37.3278 19.6312L37.8933 19.0656L39.6459 20.8182L39.0804 21.3837L38.6419 20.9452C38.3491 21.2381 37.9361 21.3069 37.6862 21.1151L37.6385 21.073L32.858 16.2924ZM41.625 27.323L42.0635 27.7615C42.3563 27.4687 42.7693 27.3999 43.0192 27.5916L43.0668 27.6338L47.8474 32.4143C47.5409 32.5886 47.2032 32.6327 46.9317 32.5317L46.8827 32.5807L43.3776 29.0756L42.812 29.6411L41.0594 27.8886L41.625 27.323ZM35.6305 21.3285L32.1253 17.8233L32.1757 17.7729C32.0751 17.5016 32.1181 17.1646 32.2917 16.8587L37.0723 21.6392L37.1144 21.6869C37.3061 21.9368 37.2373 22.3498 36.9446 22.6426L37.383 23.0811L36.8175 23.6466L35.0649 21.894L35.6305 21.3285ZM37.6385 27.6331L37.6392 27.6338L37.6869 27.5916C37.9368 27.3998 38.3497 27.4687 38.6426 27.7615L39.0811 27.323L39.6466 27.8886L37.894 29.6411L37.3285 29.0756L33.8233 32.5807L33.7729 32.5303C33.5013 32.6311 33.1642 32.5877 32.858 32.4136L37.6385 27.6331ZM32.2924 31.8481C32.1182 31.5416 32.0741 31.2039 32.175 30.9324L32.126 30.8834L35.6312 27.3783L35.0656 26.8127L36.8182 25.0601L37.3837 25.6257L36.9452 26.0642C37.2576 26.3766 37.3156 26.8262 37.0737 27.0682L32.2924 31.8481Z" fill="#A2AECB"/>
</g>
<defs>
<clipPath id="clip0_107_24">
<rect width="80" height="49" fill="white"/>
</clipPath>
</defs>
</svg>
