<svg width="80" height="49" viewBox="0 0 80 49" fill="none" xmlns="http://www.w3.org/2000/svg">
<g id="Mission Icon (Focused) 2">
<rect id="BackBox" width="80" height="49" fill="#3D4879"/>
<path id="Border" d="M40.2822 4.17969L60.0352 24.1797L60.209 24.3555L60.0352 24.5312L40.2822 44.5312L40.1045 44.7109L39.9268 44.5312L20.1738 24.5312L20 24.3555L20.1738 24.1797L39.9268 4.17969L40.1045 4L40.2822 4.17969ZM20.7021 24.3555L40.1045 43.999L59.5059 24.3555L40.1045 4.71094L20.7021 24.3555ZM40.46 6.00391L58.2373 24.0039L58.585 24.3555L58.2373 24.707L40.46 42.707L40.1035 43.0674L39.748 42.707L21.9707 24.707L21.623 24.3555L21.9707 24.0039L39.748 6.00391L40.1035 5.64355L40.46 6.00391ZM23.0283 24.3555L40.1035 41.6426L57.1787 24.3555L40.1035 7.06738L23.0283 24.3555Z" fill="#A2AECB"/>
<path id="Icon" d="M42 36H38V32H42V36ZM42 30H38V13H42V30Z" fill="#A2AECB"/>
</g>
</svg>
