<svg width="110" height="34" viewBox="0 0 110 34" fill="none" xmlns="http://www.w3.org/2000/svg">
<path d="M109.8 8.2002V25.7998H0.200195V8.2002H109.8Z" fill="#3D4879" stroke="#3D4879" stroke-width="0.4"/>
<path d="M23.6621 18.7734C23.6621 18.6211 23.6348 18.4785 23.5801 18.3457C23.5293 18.2129 23.4414 18.0879 23.3164 17.9707C23.1875 17.8574 23.0195 17.7539 22.8125 17.6602C22.6094 17.5625 22.3555 17.4727 22.0508 17.3906C21.5781 17.2617 21.1621 17.1055 20.8027 16.9219C20.4473 16.7383 20.1562 16.5371 19.9297 16.3184C19.7031 16.0996 19.5312 15.8574 19.4141 15.5918C19.3008 15.3262 19.2441 15.0371 19.2441 14.7246C19.2441 14.3652 19.3203 14.0391 19.4727 13.7461C19.625 13.4531 19.8359 13.2031 20.1055 12.9961C20.375 12.7891 20.6934 12.6309 21.0605 12.5215C21.4277 12.4082 21.8262 12.3516 22.2559 12.3516C22.7012 12.3516 23.1074 12.416 23.4746 12.5449C23.8457 12.6738 24.1641 12.8535 24.4297 13.084C24.6953 13.3184 24.9023 13.5957 25.0508 13.916C25.1992 14.2363 25.2734 14.5879 25.2734 14.9707H23.668C23.6602 14.7793 23.625 14.6035 23.5625 14.4434C23.5039 14.2832 23.416 14.1445 23.2988 14.0273C23.1777 13.9141 23.0273 13.8262 22.8477 13.7637C22.6719 13.6973 22.4648 13.6641 22.2266 13.6641C22.0078 13.6641 21.8125 13.6914 21.6406 13.7461C21.4727 13.7969 21.3301 13.8691 21.2129 13.9629C21.0957 14.0605 21.0059 14.1758 20.9434 14.3086C20.8848 14.4375 20.8555 14.5781 20.8555 14.7305C20.8555 14.8906 20.8945 15.0352 20.9727 15.1641C21.0547 15.293 21.1719 15.4082 21.3242 15.5098C21.4766 15.6152 21.6602 15.7109 21.875 15.7969C22.0938 15.8828 22.3398 15.9629 22.6133 16.0371C22.9062 16.1191 23.1855 16.2188 23.4512 16.3359C23.7168 16.4531 23.9609 16.5879 24.1836 16.7402C24.5195 16.9902 24.7871 17.2812 24.9863 17.6133C25.1855 17.9453 25.2852 18.3281 25.2852 18.7617C25.2852 19.1367 25.209 19.4707 25.0566 19.7637C24.9082 20.0527 24.7012 20.2969 24.4355 20.4961C24.1699 20.6992 23.8535 20.8535 23.4863 20.959C23.1191 21.0605 22.7188 21.1113 22.2852 21.1113C21.8594 21.1113 21.4375 21.0488 21.0195 20.9238C20.6055 20.7949 20.2441 20.6074 19.9355 20.3613C19.6426 20.1191 19.4102 19.834 19.2383 19.5059C19.0703 19.1777 18.9863 18.793 18.9863 18.3516H20.6035C20.6113 18.6094 20.6562 18.8301 20.7383 19.0137C20.8203 19.1973 20.9355 19.3477 21.084 19.4648C21.2285 19.582 21.4023 19.668 21.6055 19.7227C21.8125 19.7773 22.0391 19.8047 22.2852 19.8047C22.5039 19.8047 22.6973 19.7793 22.8652 19.7285C23.0371 19.6777 23.1816 19.6074 23.2988 19.5176C23.416 19.4277 23.5059 19.3203 23.5684 19.1953C23.6309 19.0664 23.6621 18.9258 23.6621 18.7734ZM29.4863 13.1074V14.6602H31.8535V15.8613H29.4863V18.5859C29.4863 18.8164 29.5117 19.0098 29.5625 19.166C29.6172 19.3184 29.6934 19.4395 29.791 19.5293C29.8887 19.623 30.0059 19.6895 30.1426 19.7285C30.2832 19.7676 30.4395 19.7871 30.6113 19.7871C30.7363 19.7871 30.8633 19.7812 30.9922 19.7695C31.125 19.7578 31.252 19.7422 31.373 19.7227C31.4902 19.707 31.5996 19.6895 31.7012 19.6699C31.8066 19.6504 31.8965 19.6309 31.9707 19.6113L32.1289 20.7305C32.0156 20.7969 31.8828 20.8555 31.7305 20.9062C31.5781 20.9531 31.416 20.9922 31.2441 21.0234C31.0723 21.0547 30.8926 21.0781 30.7051 21.0938C30.5215 21.1133 30.3398 21.123 30.1602 21.123C29.8125 21.123 29.4961 21.0781 29.2109 20.9883C28.9297 20.8945 28.6895 20.75 28.4902 20.5547C28.2871 20.3633 28.1309 20.1191 28.0215 19.8223C27.9121 19.5215 27.8574 19.1621 27.8574 18.7441V15.8613H26.4102V14.6602H27.8574V13.1074H29.4863ZM36.7812 21.1172C36.293 21.1172 35.8496 21.0371 35.4512 20.877C35.0527 20.7168 34.7109 20.498 34.4258 20.2207C34.1406 19.9473 33.9199 19.625 33.7637 19.2539C33.6113 18.8789 33.5352 18.4785 33.5352 18.0527V17.8184C33.5352 17.334 33.6113 16.8926 33.7637 16.4941C33.916 16.0918 34.1289 15.7461 34.4023 15.457C34.6758 15.168 35 14.9434 35.375 14.7832C35.75 14.623 36.1582 14.543 36.5996 14.543C37.0566 14.543 37.4629 14.6191 37.8184 14.7715C38.1777 14.9199 38.4824 15.1309 38.7324 15.4043C38.9785 15.6777 39.166 16.0078 39.2949 16.3945C39.4238 16.7773 39.4883 17.2012 39.4883 17.666V18.3574H35.1875V18.375C35.2422 18.6289 35.3125 18.834 35.3984 18.9902C35.4844 19.1426 35.5996 19.2812 35.7441 19.4062C35.8926 19.5352 36.0625 19.6348 36.2539 19.7051C36.4453 19.7754 36.6543 19.8105 36.8809 19.8105C37.2012 19.8105 37.5117 19.75 37.8125 19.6289C38.1133 19.5078 38.3574 19.3262 38.5449 19.084L39.3594 19.9629C39.1523 20.2559 38.8242 20.5215 38.375 20.7598C37.9258 20.998 37.3945 21.1172 36.7812 21.1172ZM36.5879 15.8613C36.4043 15.8613 36.2363 15.8945 36.084 15.9609C35.9316 16.0234 35.7988 16.1152 35.6855 16.2363C35.5684 16.3574 35.4707 16.502 35.3926 16.6699C35.3145 16.8379 35.2559 17.0254 35.2168 17.2324H37.8887V17.1035C37.8887 16.9316 37.8574 16.7695 37.7949 16.6172C37.7324 16.4648 37.6465 16.332 37.5371 16.2188C37.4277 16.1094 37.293 16.0234 37.1328 15.9609C36.9766 15.8945 36.7949 15.8613 36.5879 15.8613ZM43.9883 21.1172C43.5 21.1172 43.0566 21.0371 42.6582 20.877C42.2598 20.7168 41.918 20.498 41.6328 20.2207C41.3477 19.9473 41.127 19.625 40.9707 19.2539C40.8184 18.8789 40.7422 18.4785 40.7422 18.0527V17.8184C40.7422 17.334 40.8184 16.8926 40.9707 16.4941C41.123 16.0918 41.3359 15.7461 41.6094 15.457C41.8828 15.168 42.207 14.9434 42.582 14.7832C42.957 14.623 43.3652 14.543 43.8066 14.543C44.2637 14.543 44.6699 14.6191 45.0254 14.7715C45.3848 14.9199 45.6895 15.1309 45.9395 15.4043C46.1855 15.6777 46.373 16.0078 46.502 16.3945C46.6309 16.7773 46.6953 17.2012 46.6953 17.666V18.3574H42.3945V18.375C42.4492 18.6289 42.5195 18.834 42.6055 18.9902C42.6914 19.1426 42.8066 19.2812 42.9512 19.4062C43.0996 19.5352 43.2695 19.6348 43.4609 19.7051C43.6523 19.7754 43.8613 19.8105 44.0879 19.8105C44.4082 19.8105 44.7188 19.75 45.0195 19.6289C45.3203 19.5078 45.5645 19.3262 45.752 19.084L46.5664 19.9629C46.3594 20.2559 46.0312 20.5215 45.582 20.7598C45.1328 20.998 44.6016 21.1172 43.9883 21.1172ZM43.7949 15.8613C43.6113 15.8613 43.4434 15.8945 43.291 15.9609C43.1387 16.0234 43.0059 16.1152 42.8926 16.2363C42.7754 16.3574 42.6777 16.502 42.5996 16.6699C42.5215 16.8379 42.4629 17.0254 42.4238 17.2324H45.0957V17.1035C45.0957 16.9316 45.0645 16.7695 45.002 16.6172C44.9395 16.4648 44.8535 16.332 44.7441 16.2188C44.6348 16.1094 44.5 16.0234 44.3398 15.9609C44.1836 15.8945 44.002 15.8613 43.7949 15.8613ZM48.459 12H52.0039V19.6758H53.8203V21H48.459V19.6758H50.3574V13.3301H48.459V12ZM64.2266 17.8711V21H62.5801V12.4688H65.498C65.9629 12.4688 66.3828 12.5371 66.7578 12.6738C67.1328 12.8066 67.4531 12.9922 67.7188 13.2305C67.9805 13.4727 68.1816 13.7617 68.3223 14.0977C68.4668 14.4336 68.5391 14.8066 68.5391 15.2168C68.5391 15.5996 68.4668 15.9531 68.3223 16.2773C68.1816 16.6016 67.9805 16.8809 67.7188 17.1152C67.4531 17.3535 67.1328 17.5391 66.7578 17.6719C66.3828 17.8047 65.9629 17.8711 65.498 17.8711H64.2266ZM64.2266 16.5352H65.498C65.7324 16.5352 65.9355 16.5 66.1074 16.4297C66.2793 16.3594 66.4238 16.2637 66.541 16.1426C66.6543 16.0215 66.7383 15.8828 66.793 15.7266C66.8516 15.5664 66.8809 15.4004 66.8809 15.2285C66.8809 15.0293 66.8516 14.8438 66.793 14.6719C66.7383 14.5 66.6543 14.3496 66.541 14.2207C66.4238 14.0918 66.2793 13.9902 66.1074 13.916C65.9355 13.8418 65.7324 13.8047 65.498 13.8047H64.2266V16.5352ZM73.7012 21C73.6621 20.9219 73.6289 20.832 73.6016 20.7305C73.5742 20.6289 73.5508 20.5215 73.5312 20.4082C73.4414 20.5059 73.3379 20.5977 73.2207 20.6836C73.1035 20.7695 72.9746 20.8438 72.834 20.9062C72.6895 20.9727 72.5312 21.0234 72.3594 21.0586C72.1875 21.0977 72.002 21.1172 71.8027 21.1172C71.4785 21.1172 71.1797 21.0703 70.9062 20.9766C70.6367 20.8828 70.4043 20.752 70.209 20.584C70.0137 20.416 69.8613 20.2168 69.752 19.9863C69.6426 19.752 69.5879 19.498 69.5879 19.2246C69.5879 18.873 69.6562 18.5625 69.793 18.293C69.9297 18.0195 70.1348 17.7949 70.4082 17.6191C70.6543 17.459 70.957 17.3379 71.3164 17.2559C71.6797 17.1699 72.0957 17.127 72.5645 17.127H73.4727V16.752C73.4727 16.6035 73.4492 16.4707 73.4023 16.3535C73.3555 16.2324 73.2852 16.1289 73.1914 16.043C73.0938 15.9531 72.9707 15.8848 72.8223 15.8379C72.6777 15.7871 72.5078 15.7617 72.3125 15.7617C72.1406 15.7617 71.9922 15.7832 71.8672 15.8262C71.7422 15.8652 71.6406 15.9219 71.5625 15.9961C71.4922 16.0625 71.4395 16.1426 71.4043 16.2363C71.373 16.3301 71.3574 16.4336 71.3574 16.5469H69.7285C69.7285 16.2773 69.7871 16.0215 69.9043 15.7793C70.0254 15.5371 70.2012 15.3242 70.4316 15.1406C70.6582 14.957 70.9355 14.8125 71.2637 14.707C71.5957 14.5977 71.9746 14.543 72.4004 14.543C72.7832 14.543 73.1387 14.5898 73.4668 14.6836C73.7988 14.7773 74.0859 14.916 74.3281 15.0996C74.5703 15.2832 74.7598 15.5156 74.8965 15.7969C75.0332 16.0742 75.1016 16.3965 75.1016 16.7637V19.4824C75.1016 19.8223 75.123 20.1035 75.166 20.3262C75.209 20.5488 75.2715 20.7402 75.3535 20.9004V21H73.7012ZM72.1484 19.8574C72.3125 19.8574 72.4648 19.8379 72.6055 19.7988C72.7461 19.7598 72.873 19.709 72.9863 19.6465C73.0996 19.584 73.1973 19.5137 73.2793 19.4355C73.3613 19.3535 73.4258 19.2715 73.4727 19.1895V18.0996H72.6406C72.3867 18.0996 72.1699 18.125 71.9902 18.1758C71.8105 18.2227 71.6641 18.2891 71.5508 18.375C71.4375 18.4648 71.3535 18.5723 71.2988 18.6973C71.2441 18.8184 71.2168 18.9512 71.2168 19.0957C71.2168 19.209 71.2363 19.3145 71.2754 19.4121C71.3184 19.5059 71.3789 19.5859 71.457 19.6523C71.5352 19.7148 71.6309 19.7656 71.7441 19.8047C71.8613 19.8398 71.9961 19.8574 72.1484 19.8574ZM79.9355 13.1074V14.6602H82.3027V15.8613H79.9355V18.5859C79.9355 18.8164 79.9609 19.0098 80.0117 19.166C80.0664 19.3184 80.1426 19.4395 80.2402 19.5293C80.3379 19.623 80.4551 19.6895 80.5918 19.7285C80.7324 19.7676 80.8887 19.7871 81.0605 19.7871C81.1855 19.7871 81.3125 19.7812 81.4414 19.7695C81.5742 19.7578 81.7012 19.7422 81.8223 19.7227C81.9395 19.707 82.0488 19.6895 82.1504 19.6699C82.2559 19.6504 82.3457 19.6309 82.4199 19.6113L82.5781 20.7305C82.4648 20.7969 82.332 20.8555 82.1797 20.9062C82.0273 20.9531 81.8652 20.9922 81.6934 21.0234C81.5215 21.0547 81.3418 21.0781 81.1543 21.0938C80.9707 21.1133 80.7891 21.123 80.6094 21.123C80.2617 21.123 79.9453 21.0781 79.6602 20.9883C79.3789 20.8945 79.1387 20.75 78.9395 20.5547C78.7363 20.3633 78.5801 20.1191 78.4707 19.8223C78.3613 19.5215 78.3066 19.1621 78.3066 18.7441V15.8613H76.8594V14.6602H78.3066V13.1074H79.9355ZM85.7832 15.5332C85.8652 15.4121 85.9551 15.3008 86.0527 15.1992C86.1543 15.0938 86.2598 15.002 86.3691 14.9238C86.5371 14.8027 86.7227 14.709 86.9258 14.6426C87.1289 14.5762 87.3438 14.543 87.5703 14.543C87.9023 14.543 88.207 14.5938 88.4844 14.6953C88.7617 14.793 89 14.9473 89.1992 15.1582C89.3984 15.3691 89.5527 15.6406 89.6621 15.9727C89.7754 16.3008 89.832 16.6973 89.832 17.1621V21H88.2031V17.1504C88.2031 16.9238 88.1738 16.7285 88.1152 16.5645C88.0605 16.4004 87.9805 16.2676 87.875 16.166C87.7695 16.0645 87.6426 15.9902 87.4941 15.9434C87.3457 15.8926 87.1777 15.8672 86.9902 15.8672C86.8457 15.8672 86.7109 15.8809 86.5859 15.9082C86.4609 15.9355 86.3477 15.9766 86.2461 16.0312C86.1523 16.0781 86.0664 16.1348 85.9883 16.2012C85.9141 16.2676 85.8457 16.3418 85.7832 16.4238V21H84.1543V12H85.7832V15.5332Z" fill="#A2AECB"/>
</svg>
