<svg width="122" height="34" viewBox="0 0 122 34" fill="none" xmlns="http://www.w3.org/2000/svg">
<g id="Invasion Icon" clip-path="url(#clip0_16_340)">
<rect id="BlueBox" x="0.1" y="0.1" width="121.8" height="33.8" fill="black" stroke="#3D4879" stroke-width="0.2"/>
<rect id="BlackBox" y="30" width="122" height="4" fill="#3D4879"/>
<path id="Invasions" d="M39.1992 11.4688H44.1328V12.7988H42.4688V18.6758H44.1328V20H39.1992V18.6758H40.8223V12.7988H39.1992V11.4688ZM46.1016 20V13.6602H47.5781L47.6777 14.5391C47.7598 14.4219 47.8496 14.3145 47.9473 14.2168C48.0449 14.1191 48.1484 14.0312 48.2578 13.9531C48.4453 13.8203 48.6504 13.7188 48.873 13.6484C49.0957 13.5781 49.332 13.543 49.582 13.543C49.9023 13.543 50.1953 13.5898 50.4609 13.6836C50.7266 13.7773 50.957 13.9258 51.1523 14.1289C51.3438 14.3359 51.4922 14.6016 51.5977 14.9258C51.707 15.2461 51.7617 15.6367 51.7617 16.0977V20H50.1328V16.1211C50.1328 15.8711 50.1035 15.666 50.0449 15.5059C49.9902 15.3418 49.9102 15.2129 49.8047 15.1191C49.6992 15.0254 49.5723 14.9609 49.4238 14.9258C49.2754 14.8867 49.1074 14.8672 48.9199 14.8672C48.7637 14.8672 48.6191 14.8848 48.4863 14.9199C48.3574 14.9551 48.2422 15.0078 48.1406 15.0781C48.0586 15.1289 47.9844 15.1895 47.918 15.2598C47.8516 15.3301 47.791 15.4082 47.7363 15.4941V20H46.1016ZM55.3242 20L52.9043 13.6602H54.6035L55.998 18.1309L56.0859 18.5762L56.1738 18.1309L57.5625 13.6602H59.2617L56.8535 20H55.3242ZM64.4766 20C64.4375 19.9219 64.4043 19.832 64.377 19.7305C64.3496 19.6289 64.3262 19.5215 64.3066 19.4082C64.2168 19.5059 64.1133 19.5977 63.9961 19.6836C63.8789 19.7695 63.75 19.8438 63.6094 19.9062C63.4648 19.9727 63.3066 20.0234 63.1348 20.0586C62.9629 20.0977 62.7773 20.1172 62.5781 20.1172C62.2539 20.1172 61.9551 20.0703 61.6816 19.9766C61.4121 19.8828 61.1797 19.752 60.9844 19.584C60.7891 19.416 60.6367 19.2168 60.5273 18.9863C60.418 18.752 60.3633 18.498 60.3633 18.2246C60.3633 17.873 60.4316 17.5625 60.5684 17.293C60.7051 17.0195 60.9102 16.7949 61.1836 16.6191C61.4297 16.459 61.7324 16.3379 62.0918 16.2559C62.4551 16.1699 62.8711 16.127 63.3398 16.127H64.248V15.752C64.248 15.6035 64.2246 15.4707 64.1777 15.3535C64.1309 15.2324 64.0605 15.1289 63.9668 15.043C63.8691 14.9531 63.7461 14.8848 63.5977 14.8379C63.4531 14.7871 63.2832 14.7617 63.0879 14.7617C62.916 14.7617 62.7676 14.7832 62.6426 14.8262C62.5176 14.8652 62.416 14.9219 62.3379 14.9961C62.2676 15.0625 62.2148 15.1426 62.1797 15.2363C62.1484 15.3301 62.1328 15.4336 62.1328 15.5469H60.5039C60.5039 15.2773 60.5625 15.0215 60.6797 14.7793C60.8008 14.5371 60.9766 14.3242 61.207 14.1406C61.4336 13.957 61.7109 13.8125 62.0391 13.707C62.3711 13.5977 62.75 13.543 63.1758 13.543C63.5586 13.543 63.9141 13.5898 64.2422 13.6836C64.5742 13.7773 64.8613 13.916 65.1035 14.0996C65.3457 14.2832 65.5352 14.5156 65.6719 14.7969C65.8086 15.0742 65.877 15.3965 65.877 15.7637V18.4824C65.877 18.8223 65.8984 19.1035 65.9414 19.3262C65.9844 19.5488 66.0469 19.7402 66.1289 19.9004V20H64.4766ZM62.9238 18.8574C63.0879 18.8574 63.2402 18.8379 63.3809 18.7988C63.5215 18.7598 63.6484 18.709 63.7617 18.6465C63.875 18.584 63.9727 18.5137 64.0547 18.4355C64.1367 18.3535 64.2012 18.2715 64.248 18.1895V17.0996H63.416C63.1621 17.0996 62.9453 17.125 62.7656 17.1758C62.5859 17.2227 62.4395 17.2891 62.3262 17.375C62.2129 17.4648 62.1289 17.5723 62.0742 17.6973C62.0195 17.8184 61.9922 17.9512 61.9922 18.0957C61.9922 18.209 62.0117 18.3145 62.0508 18.4121C62.0938 18.5059 62.1543 18.5859 62.2324 18.6523C62.3105 18.7148 62.4062 18.7656 62.5195 18.8047C62.6367 18.8398 62.7715 18.8574 62.9238 18.8574ZM71.8125 18.2598C71.8125 18.1621 71.7891 18.0762 71.7422 18.002C71.6992 17.9277 71.6211 17.8574 71.5078 17.791C71.3906 17.7285 71.2363 17.6699 71.0449 17.6152C70.8535 17.5605 70.6113 17.5059 70.3184 17.4512C69.9473 17.377 69.6074 17.2852 69.2988 17.1758C68.9941 17.0625 68.7324 16.9258 68.5137 16.7656C68.2949 16.6094 68.123 16.4277 67.998 16.2207C67.877 16.0137 67.8164 15.7754 67.8164 15.5059C67.8164 15.2441 67.8789 14.9941 68.0039 14.7559C68.1289 14.5176 68.3086 14.3086 68.543 14.1289C68.7773 13.9492 69.0625 13.8066 69.3984 13.7012C69.7344 13.5957 70.1133 13.543 70.5352 13.543C70.9766 13.543 71.373 13.5957 71.7246 13.7012C72.0762 13.8027 72.375 13.9434 72.6211 14.123C72.8633 14.3066 73.0488 14.5234 73.1777 14.7734C73.3066 15.0234 73.3711 15.2949 73.3711 15.5879H71.7422C71.7422 15.4824 71.7246 15.3848 71.6895 15.2949C71.6543 15.2012 71.6016 15.1172 71.5312 15.043C71.4336 14.9453 71.3008 14.8672 71.1328 14.8086C70.9688 14.75 70.7695 14.7207 70.5352 14.7207C70.3359 14.7207 70.1621 14.7402 70.0137 14.7793C69.8652 14.8184 69.7441 14.873 69.6504 14.9434C69.5645 15.0059 69.498 15.0801 69.4512 15.166C69.4082 15.248 69.3867 15.3359 69.3867 15.4297C69.3867 15.5234 69.4062 15.6113 69.4453 15.6934C69.4844 15.7715 69.5547 15.8418 69.6562 15.9043C69.7539 15.9707 69.8887 16.0312 70.0605 16.0859C70.2324 16.1367 70.4512 16.1816 70.7168 16.2207C71.0996 16.2832 71.4551 16.3633 71.7832 16.4609C72.1113 16.5586 72.3945 16.6836 72.6328 16.8359C72.8711 16.9922 73.0566 17.1816 73.1895 17.4043C73.3262 17.623 73.3945 17.8848 73.3945 18.1895C73.3945 18.4707 73.3262 18.7305 73.1895 18.9688C73.0566 19.2031 72.8672 19.4062 72.6211 19.5781C72.3711 19.75 72.0703 19.8848 71.7188 19.9824C71.3672 20.0762 70.9746 20.123 70.541 20.123C70.0645 20.123 69.6426 20.0605 69.2754 19.9355C68.9121 19.8105 68.6074 19.6465 68.3613 19.4434C68.1152 19.2441 67.9277 19.0176 67.7988 18.7637C67.6738 18.5059 67.6113 18.248 67.6113 17.9902H69.1641C69.1758 18.1621 69.2227 18.3105 69.3047 18.4355C69.3867 18.5566 69.4922 18.6543 69.6211 18.7285C69.75 18.8066 69.8965 18.8633 70.0605 18.8984C70.2285 18.9336 70.4004 18.9512 70.5762 18.9512C70.7871 18.9512 70.9707 18.9336 71.127 18.8984C71.2871 18.8594 71.418 18.8086 71.5195 18.7461C71.6172 18.6836 71.6895 18.6113 71.7363 18.5293C71.7871 18.4473 71.8125 18.3574 71.8125 18.2598ZM75.3633 13.6602H78.8145V18.6758H80.5312V20H75.3633V18.6758H77.168V14.9902H75.3633V13.6602ZM77.0508 12.0371C77.0508 11.9121 77.0723 11.7969 77.1152 11.6914C77.1621 11.582 77.2266 11.4883 77.3086 11.4102C77.3906 11.3359 77.4883 11.2773 77.6016 11.2344C77.7188 11.1914 77.8477 11.1699 77.9883 11.1699C78.2773 11.1699 78.5059 11.252 78.6738 11.416C78.8457 11.5762 78.9316 11.7832 78.9316 12.0371C78.9316 12.291 78.8457 12.5 78.6738 12.6641C78.5059 12.8242 78.2773 12.9043 77.9883 12.9043C77.8477 12.9043 77.7188 12.8828 77.6016 12.8398C77.4883 12.7969 77.3906 12.7363 77.3086 12.6582C77.2266 12.584 77.1621 12.4941 77.1152 12.3887C77.0723 12.2793 77.0508 12.1621 77.0508 12.0371ZM81.9141 16.7715C81.9141 16.3105 81.9805 15.8848 82.1133 15.4941C82.2461 15.0996 82.4414 14.7578 82.6992 14.4688C82.9531 14.1797 83.2637 13.9531 83.6309 13.7891C84.002 13.625 84.4258 13.543 84.9023 13.543C85.3789 13.543 85.8027 13.625 86.1738 13.7891C86.5449 13.9531 86.8594 14.1797 87.1172 14.4688C87.3711 14.7578 87.5645 15.0996 87.6973 15.4941C87.8301 15.8848 87.8965 16.3105 87.8965 16.7715V16.8945C87.8965 17.3594 87.8301 17.7891 87.6973 18.1836C87.5645 18.5742 87.3711 18.9141 87.1172 19.2031C86.8633 19.4922 86.5508 19.7188 86.1797 19.8828C85.8086 20.043 85.3867 20.123 84.9141 20.123C84.4375 20.123 84.0117 20.043 83.6367 19.8828C83.2656 19.7188 82.9531 19.4922 82.6992 19.2031C82.4414 18.9141 82.2461 18.5742 82.1133 18.1836C81.9805 17.7891 81.9141 17.3594 81.9141 16.8945V16.7715ZM83.543 16.8945C83.543 17.1602 83.5684 17.4102 83.6191 17.6445C83.6699 17.875 83.75 18.0762 83.8594 18.248C83.9688 18.4238 84.1094 18.5625 84.2812 18.6641C84.457 18.7656 84.668 18.8164 84.9141 18.8164C85.1523 18.8164 85.3574 18.7656 85.5293 18.6641C85.7012 18.5625 85.8418 18.4238 85.9512 18.248C86.0566 18.0762 86.1348 17.875 86.1855 17.6445C86.2363 17.4102 86.2617 17.1602 86.2617 16.8945V16.7715C86.2617 16.5137 86.2363 16.2695 86.1855 16.0391C86.1348 15.8086 86.0566 15.6055 85.9512 15.4297C85.8418 15.2539 85.7012 15.1152 85.5293 15.0137C85.3574 14.9121 85.1484 14.8613 84.9023 14.8613C84.6602 14.8613 84.4531 14.9121 84.2812 15.0137C84.1094 15.1152 83.9688 15.2539 83.8594 15.4297C83.75 15.6055 83.6699 15.8086 83.6191 16.0391C83.5684 16.2695 83.543 16.5137 83.543 16.7715V16.8945ZM89.3438 20V13.6602H90.8203L90.9199 14.5391C91.002 14.4219 91.0918 14.3145 91.1895 14.2168C91.2871 14.1191 91.3906 14.0312 91.5 13.9531C91.6875 13.8203 91.8926 13.7188 92.1152 13.6484C92.3379 13.5781 92.5742 13.543 92.8242 13.543C93.1445 13.543 93.4375 13.5898 93.7031 13.6836C93.9688 13.7773 94.1992 13.9258 94.3945 14.1289C94.5859 14.3359 94.7344 14.6016 94.8398 14.9258C94.9492 15.2461 95.0039 15.6367 95.0039 16.0977V20H93.375V16.1211C93.375 15.8711 93.3457 15.666 93.2871 15.5059C93.2324 15.3418 93.1523 15.2129 93.0469 15.1191C92.9414 15.0254 92.8145 14.9609 92.666 14.9258C92.5176 14.8867 92.3496 14.8672 92.1621 14.8672C92.0059 14.8672 91.8613 14.8848 91.7285 14.9199C91.5996 14.9551 91.4844 15.0078 91.3828 15.0781C91.3008 15.1289 91.2266 15.1895 91.1602 15.2598C91.0938 15.3301 91.0332 15.4082 90.9785 15.4941V20H89.3438ZM100.641 18.2598C100.641 18.1621 100.617 18.0762 100.57 18.002C100.527 17.9277 100.449 17.8574 100.336 17.791C100.219 17.7285 100.064 17.6699 99.873 17.6152C99.6816 17.5605 99.4395 17.5059 99.1465 17.4512C98.7754 17.377 98.4355 17.2852 98.127 17.1758C97.8223 17.0625 97.5605 16.9258 97.3418 16.7656C97.123 16.6094 96.9512 16.4277 96.8262 16.2207C96.7051 16.0137 96.6445 15.7754 96.6445 15.5059C96.6445 15.2441 96.707 14.9941 96.832 14.7559C96.957 14.5176 97.1367 14.3086 97.3711 14.1289C97.6055 13.9492 97.8906 13.8066 98.2266 13.7012C98.5625 13.5957 98.9414 13.543 99.3633 13.543C99.8047 13.543 100.201 13.5957 100.553 13.7012C100.904 13.8027 101.203 13.9434 101.449 14.123C101.691 14.3066 101.877 14.5234 102.006 14.7734C102.135 15.0234 102.199 15.2949 102.199 15.5879H100.57C100.57 15.4824 100.553 15.3848 100.518 15.2949C100.482 15.2012 100.43 15.1172 100.359 15.043C100.262 14.9453 100.129 14.8672 99.9609 14.8086C99.7969 14.75 99.5977 14.7207 99.3633 14.7207C99.1641 14.7207 98.9902 14.7402 98.8418 14.7793C98.6934 14.8184 98.5723 14.873 98.4785 14.9434C98.3926 15.0059 98.3262 15.0801 98.2793 15.166C98.2363 15.248 98.2148 15.3359 98.2148 15.4297C98.2148 15.5234 98.2344 15.6113 98.2734 15.6934C98.3125 15.7715 98.3828 15.8418 98.4844 15.9043C98.582 15.9707 98.7168 16.0312 98.8887 16.0859C99.0605 16.1367 99.2793 16.1816 99.5449 16.2207C99.9277 16.2832 100.283 16.3633 100.611 16.4609C100.939 16.5586 101.223 16.6836 101.461 16.8359C101.699 16.9922 101.885 17.1816 102.018 17.4043C102.154 17.623 102.223 17.8848 102.223 18.1895C102.223 18.4707 102.154 18.7305 102.018 18.9688C101.885 19.2031 101.695 19.4062 101.449 19.5781C101.199 19.75 100.898 19.8848 100.547 19.9824C100.195 20.0762 99.8027 20.123 99.3691 20.123C98.8926 20.123 98.4707 20.0605 98.1035 19.9355C97.7402 19.8105 97.4355 19.6465 97.1895 19.4434C96.9434 19.2441 96.7559 19.0176 96.627 18.7637C96.502 18.5059 96.4395 18.248 96.4395 17.9902H97.9922C98.0039 18.1621 98.0508 18.3105 98.1328 18.4355C98.2148 18.5566 98.3203 18.6543 98.4492 18.7285C98.5781 18.8066 98.7246 18.8633 98.8887 18.8984C99.0566 18.9336 99.2285 18.9512 99.4043 18.9512C99.6152 18.9512 99.7988 18.9336 99.9551 18.8984C100.115 18.8594 100.246 18.8086 100.348 18.7461C100.445 18.6836 100.518 18.6113 100.564 18.5293C100.615 18.4473 100.641 18.3574 100.641 18.2598Z" fill="#3D4879"/>
<path id="Icon" d="M26.7305 21.3662L25.5908 19.623C27.3826 20.3536 29.4148 20.1885 31.0654 19.1787L31.29 19.042C30.9165 19.8036 30.351 20.4548 29.6494 20.9316L29.0098 21.3662L28.5078 21.6221C28.0842 21.838 27.6376 22.0066 27.1768 22.124C26.1358 22.3894 25.0449 22.3894 24.0039 22.124C23.5431 22.0066 23.0965 21.838 22.6729 21.6221L22.1709 21.3662L21.0303 20.2041L23.3105 18.4609V20.7852L23.8809 18.4609L26.7305 21.3662ZM21.7725 10.4209C21.7218 10.507 21.6738 10.5941 21.6289 10.6826C21.5214 10.8946 21.4326 11.1134 21.3584 11.3359C21.0421 12.2864 21.03 13.317 21.3271 14.2783C21.4004 14.5147 21.4898 14.7477 21.6006 14.9736L20.4609 14.3926L21.6006 16.1357L22.7402 17.2979L21.0303 17.8799H22.7402L21.0303 20.2041L20.1758 19.332C20.0367 19.1903 19.9087 19.0389 19.793 18.8789C19.4457 18.3995 19.2076 17.8468 19.0996 17.2598L19.0732 17.1172C19.0243 16.8509 19 16.5803 19 16.3096V15.6797C19 15.4438 19.0107 15.2083 19.0322 14.9736C19.0536 14.7406 19.0856 14.5086 19.1279 14.2783L19.1768 14.0146L19.1777 14.0068C19.2726 13.4914 19.4382 12.991 19.6689 12.5205C19.7179 12.4206 19.7696 12.3222 19.8242 12.2256C20.1408 11.6639 20.5496 11.16 21.0332 10.7373L22.1709 9.74316L21.7725 10.4209ZM29.0098 15.5547C30.1239 15.5547 31.2133 15.2201 32.1348 14.5938L32.4297 14.3926L31.6475 15.4561C31.0411 16.2804 30.219 16.9221 29.2715 17.3086C28.3543 17.6826 27.3532 17.8039 26.373 17.6611L23.8809 17.2979L23.5059 14.9023C23.3772 14.0801 23.4193 13.2394 23.6309 12.4346L23.6436 12.3896C23.8008 11.7917 24.0532 11.2226 24.3916 10.7051C24.8067 10.0703 25.3435 9.52408 25.9707 9.09766L26.7305 8.58105L26.5449 8.86523C25.9224 9.81735 25.5908 10.9308 25.5908 12.0684L33 8L29.0098 15.5547Z" fill="#3D4879"/>
</g>
<defs>
<clipPath id="clip0_16_340">
<rect width="122" height="34" fill="white"/>
</clipPath>
</defs>
</svg>
