<svg width="110" height="34" viewBox="0 0 110 34" fill="none" xmlns="http://www.w3.org/2000/svg">
<path d="M109.8 8.2002V25.7998H4.2793L0.219727 17L4.2793 8.2002H109.8Z" fill="#010411" stroke="#3D4879" stroke-width="0.4"/>
<path d="M39.2715 21H37.6309L35.2578 15.498V21H33.5996V12.4688H35.2578L37.6133 17.9473L37.6191 12.4688H39.2715V21ZM40.6895 17.7715C40.6895 17.3105 40.7559 16.8848 40.8887 16.4941C41.0215 16.0996 41.2168 15.7578 41.4746 15.4688C41.7285 15.1797 42.0391 14.9531 42.4062 14.7891C42.7773 14.625 43.2012 14.543 43.6777 14.543C44.1543 14.543 44.5781 14.625 44.9492 14.7891C45.3203 14.9531 45.6348 15.1797 45.8926 15.4688C46.1465 15.7578 46.3398 16.0996 46.4727 16.4941C46.6055 16.8848 46.6719 17.3105 46.6719 17.7715V17.8945C46.6719 18.3594 46.6055 18.7891 46.4727 19.1836C46.3398 19.5742 46.1465 19.9141 45.8926 20.2031C45.6387 20.4922 45.3262 20.7188 44.9551 20.8828C44.584 21.043 44.1621 21.123 43.6895 21.123C43.2129 21.123 42.7871 21.043 42.4121 20.8828C42.041 20.7188 41.7285 20.4922 41.4746 20.2031C41.2168 19.9141 41.0215 19.5742 40.8887 19.1836C40.7559 18.7891 40.6895 18.3594 40.6895 17.8945V17.7715ZM42.3184 17.8945C42.3184 18.1602 42.3438 18.4102 42.3945 18.6445C42.4453 18.875 42.5254 19.0762 42.6348 19.248C42.7441 19.4238 42.8848 19.5625 43.0566 19.6641C43.2324 19.7656 43.4434 19.8164 43.6895 19.8164C43.9277 19.8164 44.1328 19.7656 44.3047 19.6641C44.4766 19.5625 44.6172 19.4238 44.7266 19.248C44.832 19.0762 44.9102 18.875 44.9609 18.6445C45.0117 18.4102 45.0371 18.1602 45.0371 17.8945V17.7715C45.0371 17.5137 45.0117 17.2695 44.9609 17.0391C44.9102 16.8086 44.832 16.6055 44.7266 16.4297C44.6172 16.2539 44.4766 16.1152 44.3047 16.0137C44.1328 15.9121 43.9238 15.8613 43.6777 15.8613C43.4355 15.8613 43.2285 15.9121 43.0566 16.0137C42.8848 16.1152 42.7441 16.2539 42.6348 16.4297C42.5254 16.6055 42.4453 16.8086 42.3945 17.0391C42.3438 17.2695 42.3184 17.5137 42.3184 17.7715V17.8945ZM52.6719 14.543C52.918 14.543 53.1445 14.5605 53.3516 14.5957C53.5625 14.627 53.7324 14.6621 53.8613 14.7012L53.6211 16.3242C53.4062 16.2734 53.1855 16.2363 52.959 16.2129C52.7363 16.1855 52.5234 16.1719 52.3203 16.1719C52.1094 16.1719 51.918 16.1914 51.7461 16.2305C51.5781 16.2656 51.4277 16.3203 51.2949 16.3945C51.1348 16.4805 50.998 16.5898 50.8848 16.7227C50.7715 16.8555 50.6777 17.0117 50.6035 17.1914V21H48.9746V14.6602H50.4922L50.5566 15.5566L50.5684 15.6973C50.8262 15.3379 51.1348 15.0566 51.4941 14.8535C51.8535 14.6465 52.2461 14.543 52.6719 14.543ZM56.3398 14.6602L56.3867 15.4277C56.5078 15.1543 56.6738 14.9395 56.8848 14.7832C57.0996 14.623 57.3594 14.543 57.6641 14.543C57.8125 14.543 57.9453 14.5605 58.0625 14.5957C58.1797 14.6309 58.2812 14.6855 58.3672 14.7598C58.4336 14.8145 58.4902 14.8809 58.5371 14.959C58.5879 15.0332 58.6309 15.1191 58.666 15.2168C58.7207 15.123 58.7812 15.0391 58.8477 14.9648C58.918 14.8867 58.9941 14.8203 59.0762 14.7656C59.1777 14.6953 59.293 14.6406 59.4219 14.6016C59.5508 14.5625 59.6914 14.543 59.8438 14.543C60.0352 14.543 60.2129 14.5781 60.377 14.6484C60.5449 14.7188 60.6914 14.8301 60.8164 14.9824C60.9375 15.1387 61.0312 15.3398 61.0977 15.5859C61.168 15.8281 61.2031 16.125 61.2031 16.4766V21H59.7207V16.4707C59.7207 16.3496 59.707 16.25 59.6797 16.1719C59.6562 16.0938 59.623 16.0312 59.5801 15.9844C59.5371 15.9414 59.4863 15.9121 59.4277 15.8965C59.373 15.877 59.3164 15.8672 59.2578 15.8672C59.1953 15.8672 59.1387 15.875 59.0879 15.8906C59.041 15.9062 58.9961 15.9277 58.9531 15.9551C58.918 15.9824 58.8867 16.0137 58.8594 16.0488C58.832 16.0801 58.8086 16.1172 58.7891 16.1602C58.7891 16.168 58.7891 16.1855 58.7891 16.2129C58.7891 16.2402 58.7891 16.2773 58.7891 16.3242V21H57.3535V16.4648C57.3535 16.3438 57.3418 16.2441 57.3184 16.166C57.2949 16.0879 57.2637 16.0273 57.2246 15.9844C57.1816 15.9414 57.1328 15.9121 57.0781 15.8965C57.0234 15.877 56.9648 15.8672 56.9023 15.8672C56.832 15.8672 56.7695 15.8789 56.7148 15.9023C56.6602 15.9258 56.6113 15.959 56.5684 16.002C56.5371 16.0332 56.5098 16.0703 56.4863 16.1133C56.4629 16.1562 56.4414 16.2031 56.4219 16.2539V21H54.9395V14.6602H56.3398ZM66.4941 21C66.4551 20.9219 66.4219 20.832 66.3945 20.7305C66.3672 20.6289 66.3438 20.5215 66.3242 20.4082C66.2344 20.5059 66.1309 20.5977 66.0137 20.6836C65.8965 20.7695 65.7676 20.8438 65.627 20.9062C65.4824 20.9727 65.3242 21.0234 65.1523 21.0586C64.9805 21.0977 64.7949 21.1172 64.5957 21.1172C64.2715 21.1172 63.9727 21.0703 63.6992 20.9766C63.4297 20.8828 63.1973 20.752 63.002 20.584C62.8066 20.416 62.6543 20.2168 62.5449 19.9863C62.4355 19.752 62.3809 19.498 62.3809 19.2246C62.3809 18.873 62.4492 18.5625 62.5859 18.293C62.7227 18.0195 62.9277 17.7949 63.2012 17.6191C63.4473 17.459 63.75 17.3379 64.1094 17.2559C64.4727 17.1699 64.8887 17.127 65.3574 17.127H66.2656V16.752C66.2656 16.6035 66.2422 16.4707 66.1953 16.3535C66.1484 16.2324 66.0781 16.1289 65.9844 16.043C65.8867 15.9531 65.7637 15.8848 65.6152 15.8379C65.4707 15.7871 65.3008 15.7617 65.1055 15.7617C64.9336 15.7617 64.7852 15.7832 64.6602 15.8262C64.5352 15.8652 64.4336 15.9219 64.3555 15.9961C64.2852 16.0625 64.2324 16.1426 64.1973 16.2363C64.166 16.3301 64.1504 16.4336 64.1504 16.5469H62.5215C62.5215 16.2773 62.5801 16.0215 62.6973 15.7793C62.8184 15.5371 62.9941 15.3242 63.2246 15.1406C63.4512 14.957 63.7285 14.8125 64.0566 14.707C64.3887 14.5977 64.7676 14.543 65.1934 14.543C65.5762 14.543 65.9316 14.5898 66.2598 14.6836C66.5918 14.7773 66.8789 14.916 67.1211 15.0996C67.3633 15.2832 67.5527 15.5156 67.6895 15.7969C67.8262 16.0742 67.8945 16.3965 67.8945 16.7637V19.4824C67.8945 19.8223 67.916 20.1035 67.959 20.3262C68.002 20.5488 68.0645 20.7402 68.1465 20.9004V21H66.4941ZM64.9414 19.8574C65.1055 19.8574 65.2578 19.8379 65.3984 19.7988C65.5391 19.7598 65.666 19.709 65.7793 19.6465C65.8926 19.584 65.9902 19.5137 66.0723 19.4355C66.1543 19.3535 66.2188 19.2715 66.2656 19.1895V18.0996H65.4336C65.1797 18.0996 64.9629 18.125 64.7832 18.1758C64.6035 18.2227 64.457 18.2891 64.3438 18.375C64.2305 18.4648 64.1465 18.5723 64.0918 18.6973C64.0371 18.8184 64.0098 18.9512 64.0098 19.0957C64.0098 19.209 64.0293 19.3145 64.0684 19.4121C64.1113 19.5059 64.1719 19.5859 64.25 19.6523C64.3281 19.7148 64.4238 19.7656 64.5371 19.8047C64.6543 19.8398 64.7891 19.8574 64.9414 19.8574ZM70.0801 12H73.625V19.6758H75.4414V21H70.0801V19.6758H71.9785V13.3301H70.0801V12Z" fill="#3D4879"/>
</svg>
