<svg width="98" height="48" viewBox="0 0 98 48" fill="none" xmlns="http://www.w3.org/2000/svg">
<path d="M31 24L49 6L67 24L49 42L31 24Z" stroke="#3D4879"/>
<path d="M29 24L49 4L69 24L49 44L29 24Z" stroke="#3D4879" stroke-width="0.5"/>
<mask id="path-3-inside-1_16_404" fill="white">
<path d="M50 17.0723C50.5564 17.1519 51.0915 17.2966 51.5977 17.499L52.6338 15.7061L54.3662 16.7061L53.3291 18.501C53.7633 18.8433 54.1556 19.2358 54.498 19.6699L56.2939 18.6338L57.2939 20.3662L55.5 21.4014C55.7027 21.9079 55.8481 22.4432 55.9277 23H58V25H55.9277C55.8481 25.5565 55.7025 26.0914 55.5 26.5977L57.2939 27.6338L56.2939 29.3662L54.498 28.3291C54.1557 28.7633 53.7633 29.1557 53.3291 29.498L54.3662 31.2939L52.6338 32.2939L51.5977 30.499C51.0913 30.7016 50.5566 30.8471 50 30.9268V33H48V30.9268C47.4431 30.8471 46.9079 30.7018 46.4014 30.499L45.3662 32.2939L43.6338 31.2939L44.6699 29.498C44.2358 29.1556 43.8433 28.7633 43.501 28.3291L41.7061 29.3662L40.7061 27.6338L42.499 26.5977C42.2966 26.0915 42.1519 25.5564 42.0723 25H40V23H42.0723C42.1519 22.4433 42.2964 21.9078 42.499 21.4014L40.7061 20.3662L41.7061 18.6338L43.501 19.6699C43.8433 19.2358 44.2358 18.8433 44.6699 18.501L43.6338 16.7061L45.3662 15.7061L46.4014 17.499C46.9078 17.2964 47.4433 17.1519 48 17.0723V15H50V17.0723Z"/>
</mask>
<path d="M50 17.0723H49V17.9394L49.8584 18.0622L50 17.0723ZM51.5977 17.499L51.2263 18.4275L52.0303 18.749L52.4635 17.9994L51.5977 17.499ZM52.6338 15.7061L53.1337 14.84L52.2681 14.3403L51.768 15.2057L52.6338 15.7061ZM54.3662 16.7061L55.2321 17.2063L55.7326 16.3401L54.8661 15.84L54.3662 16.7061ZM53.3291 18.501L52.4632 18.0007L52.0301 18.7503L52.71 19.2863L53.3291 18.501ZM54.498 19.6699L53.7128 20.2892L54.2485 20.9684L54.9978 20.5361L54.498 19.6699ZM56.2939 18.6338L57.16 18.1339L56.6602 17.268L55.7942 17.7676L56.2939 18.6338ZM57.2939 20.3662L57.7937 21.2324L58.66 20.7325L58.16 19.8663L57.2939 20.3662ZM55.5 21.4014L55.0002 20.5352L54.2496 20.9683L54.5716 21.7729L55.5 21.4014ZM55.9277 23L54.9378 23.1416L55.0606 24H55.9277V23ZM58 23H59V22H58V23ZM58 25V26H59V25H58ZM55.9277 25V24H55.0606L54.9378 24.8584L55.9277 25ZM55.5 26.5977L54.5715 26.2263L54.2499 27.0304L54.9999 27.4636L55.5 26.5977ZM57.2939 27.6338L58.16 28.1337L58.6598 27.2679L57.7941 26.7678L57.2939 27.6338ZM56.2939 29.3662L55.7939 30.2322L56.66 30.7324L57.16 29.8661L56.2939 29.3662ZM54.498 28.3291L54.9981 27.4631L54.2487 27.0303L53.7128 27.7099L54.498 28.3291ZM53.3291 29.498L52.7099 28.7128L52.0303 29.2487L52.4631 29.9981L53.3291 29.498ZM54.3662 31.2939L54.8661 32.16L55.7324 31.66L55.2322 30.7939L54.3662 31.2939ZM52.6338 32.2939L51.7677 32.7939L52.2677 33.6599L53.1337 33.16L52.6338 32.2939ZM51.5977 30.499L52.4637 29.9991L52.0306 29.2488L51.2262 29.5706L51.5977 30.499ZM50 30.9268L49.8584 29.9368L49 30.0597V30.9268H50ZM50 33V34H51V33H50ZM48 33H47V34H48V33ZM48 30.9268H49V30.0597L48.1416 29.9368L48 30.9268ZM46.4014 30.499L46.7729 29.5706L45.9682 29.2485L45.5351 29.9994L46.4014 30.499ZM45.3662 32.2939L44.8663 33.16L45.7327 33.6601L46.2325 32.7935L45.3662 32.2939ZM43.6338 31.2939L42.7676 30.7942L42.268 31.6602L43.1339 32.16L43.6338 31.2939ZM44.6699 29.498L45.5361 29.9978L45.9684 29.2485L45.2892 28.7128L44.6699 29.498ZM43.501 28.3291L44.2863 27.71L43.7503 27.0301L43.0007 27.4632L43.501 28.3291ZM41.7061 29.3662L40.84 29.8661L41.3401 30.7326L42.2063 30.2321L41.7061 29.3662ZM40.7061 27.6338L40.2057 26.768L39.3403 27.2681L39.84 28.1337L40.7061 27.6338ZM42.499 26.5977L42.9994 27.4635L43.749 27.0303L43.4275 26.2263L42.499 26.5977ZM42.0723 25L43.0622 24.8584L42.9394 24H42.0723V25ZM40 25H39V26H40V25ZM40 23V22H39V23H40ZM42.0723 23V24H42.9394L43.0622 23.1416L42.0723 23ZM42.499 21.4014L43.4275 21.7728L43.7493 20.9685L42.999 20.5353L42.499 21.4014ZM40.7061 20.3662L39.84 19.8663L39.3401 20.7323L40.2061 21.2322L40.7061 20.3662ZM41.7061 18.6338L42.206 17.7677L41.3399 17.2678L40.84 18.1339L41.7061 18.6338ZM43.501 19.6699L43.001 20.536L43.7504 20.9686L44.2862 20.2891L43.501 19.6699ZM44.6699 18.501L45.2891 19.2862L45.9686 18.7504L45.536 18.001L44.6699 18.501ZM43.6338 16.7061L43.1339 15.84L42.2678 16.3399L42.7677 17.206L43.6338 16.7061ZM45.3662 15.7061L46.2322 15.2061L45.7323 14.3401L44.8663 14.84L45.3662 15.7061ZM46.4014 17.499L45.5353 17.999L45.9685 18.7493L46.7728 18.4275L46.4014 17.499ZM48 17.0723L48.1416 18.0622L49 17.9394V17.0723H48ZM48 15V14H47V15H48ZM50 15H51V14H50V15ZM50 17.0723L49.8584 18.0622C50.3354 18.1304 50.7934 18.2544 51.2263 18.4275L51.5977 17.499L51.969 16.5705C51.3896 16.3388 50.7775 16.1733 50.1416 16.0823L50 17.0723ZM51.5977 17.499L52.4635 17.9994L53.4996 16.2064L52.6338 15.7061L51.768 15.2057L50.7318 16.9987L51.5977 17.499ZM52.6338 15.7061L52.1339 16.5721L53.8663 17.5721L54.3662 16.7061L54.8661 15.84L53.1337 14.84L52.6338 15.7061ZM54.3662 16.7061L53.5004 16.2058L52.4632 18.0007L53.3291 18.501L54.195 19.0013L55.2321 17.2063L54.3662 16.7061ZM53.3291 18.501L52.71 19.2863C53.0824 19.5799 53.419 19.9165 53.7128 20.2892L54.498 19.6699L55.2832 19.0507C54.8923 18.555 54.4443 18.1067 53.9482 17.7157L53.3291 18.501ZM54.498 19.6699L54.9978 20.5361L56.7937 19.5L56.2939 18.6338L55.7942 17.7676L53.9983 18.8037L54.498 19.6699ZM56.2939 18.6338L55.4279 19.1337L56.4279 20.8661L57.2939 20.3662L58.16 19.8663L57.16 18.1339L56.2939 18.6338ZM57.2939 20.3662L56.7942 19.5001L55.0002 20.5352L55.5 21.4014L55.9998 22.2675L57.7937 21.2324L57.2939 20.3662ZM55.5 21.4014L54.5716 21.7729C54.7452 22.2067 54.8696 22.6649 54.9378 23.1416L55.9277 23L56.9177 22.8584C56.8265 22.2214 56.6602 21.609 56.4284 21.0299L55.5 21.4014ZM55.9277 23V24H58V23V22H55.9277V23ZM58 23H57V25H58H59V23H58ZM58 25V24H55.9277V25V26H58V25ZM55.9277 25L54.9378 24.8584C54.8697 25.3344 54.7451 25.7922 54.5715 26.2263L55.5 26.5977L56.4285 26.969C56.6599 26.3906 56.8265 25.7787 56.9177 25.1416L55.9277 25ZM55.5 26.5977L54.9999 27.4636L56.7938 28.4997L57.2939 27.6338L57.7941 26.7678L56.0001 25.7317L55.5 26.5977ZM57.2939 27.6338L56.4279 27.1339L55.4279 28.8663L56.2939 29.3662L57.16 29.8661L58.16 28.1337L57.2939 27.6338ZM56.2939 29.3662L56.794 28.5002L54.9981 27.4631L54.498 28.3291L53.998 29.1951L55.7939 30.2322L56.2939 29.3662ZM54.498 28.3291L53.7128 27.7099C53.419 28.0825 53.0825 28.419 52.7099 28.7128L53.3291 29.498L53.9483 30.2833C54.4442 29.8923 54.8923 29.4442 55.2833 28.9483L54.498 28.3291ZM53.3291 29.498L52.4631 29.9981L53.5002 31.794L54.3662 31.2939L55.2322 30.7939L54.1951 28.998L53.3291 29.498ZM54.3662 31.2939L53.8663 30.4279L52.1339 31.4279L52.6338 32.2939L53.1337 33.16L54.8661 32.16L54.3662 31.2939ZM52.6338 32.2939L53.4998 31.794L52.4637 29.9991L51.5977 30.499L50.7316 30.999L51.7677 32.7939L52.6338 32.2939ZM51.5977 30.499L51.2262 29.5706C50.7922 29.7442 50.3345 29.8687 49.8584 29.9368L50 30.9268L50.1416 31.9167C50.7787 31.8255 51.3905 31.6589 51.9691 31.4275L51.5977 30.499ZM50 30.9268H49V33H50H51V30.9268H50ZM50 33V32H48V33V34H50V33ZM48 33H49V30.9268H48H47V33H48ZM48 30.9268L48.1416 29.9368C47.6648 29.8686 47.2068 29.7442 46.7729 29.5706L46.4014 30.499L46.0298 31.4274C46.6091 31.6593 47.2213 31.8255 47.8584 31.9167L48 30.9268ZM46.4014 30.499L45.5351 29.9994L44.4999 31.7944L45.3662 32.2939L46.2325 32.7935L47.2676 30.9986L46.4014 30.499ZM45.3662 32.2939L45.8661 31.4279L44.1337 30.4279L43.6338 31.2939L43.1339 32.16L44.8663 33.16L45.3662 32.2939ZM43.6338 31.2939L44.5 31.7937L45.5361 29.9978L44.6699 29.498L43.8037 28.9983L42.7676 30.7942L43.6338 31.2939ZM44.6699 29.498L45.2892 28.7128C44.9165 28.419 44.5799 28.0824 44.2863 27.71L43.501 28.3291L42.7157 28.9482C43.1067 29.4443 43.555 29.8923 44.0507 30.2832L44.6699 29.498ZM43.501 28.3291L43.0007 27.4632L41.2058 28.5004L41.7061 29.3662L42.2063 30.2321L44.0013 29.195L43.501 28.3291ZM41.7061 29.3662L42.5721 28.8663L41.5721 27.1339L40.7061 27.6338L39.84 28.1337L40.84 29.8661L41.7061 29.3662ZM40.7061 27.6338L41.2064 28.4996L42.9994 27.4635L42.499 26.5977L41.9987 25.7318L40.2057 26.768L40.7061 27.6338ZM42.499 26.5977L43.4275 26.2263C43.2544 25.7934 43.1304 25.3354 43.0622 24.8584L42.0723 25L41.0823 25.1416C41.1733 25.7775 41.3388 26.3896 41.5705 26.969L42.499 26.5977ZM42.0723 25V24H40V25V26H42.0723V25ZM40 25H41V23H40H39V25H40ZM40 23V24H42.0723V23V22H40V23ZM42.0723 23L43.0622 23.1416C43.1305 22.664 43.2543 22.2056 43.4275 21.7728L42.499 21.4014L41.5706 21.0299C41.3385 21.6099 41.1733 22.2226 41.0823 22.8584L42.0723 23ZM42.499 21.4014L42.999 20.5353L41.206 19.5002L40.7061 20.3662L40.2061 21.2322L41.999 22.2674L42.499 21.4014ZM40.7061 20.3662L41.5721 20.8661L42.5721 19.1337L41.7061 18.6338L40.84 18.1339L39.84 19.8663L40.7061 20.3662ZM41.7061 18.6338L41.2061 19.4998L43.001 20.536L43.501 19.6699L44.0009 18.8039L42.206 17.7677L41.7061 18.6338ZM43.501 19.6699L44.2862 20.2891C44.5799 19.9166 44.9166 19.5799 45.2891 19.2862L44.6699 18.501L44.0507 17.7157C43.5549 18.1067 43.1067 18.5549 42.7157 19.0507L43.501 19.6699ZM44.6699 18.501L45.536 18.001L44.4998 16.2061L43.6338 16.7061L42.7677 17.206L43.8039 19.0009L44.6699 18.501ZM43.6338 16.7061L44.1337 17.5721L45.8661 16.5721L45.3662 15.7061L44.8663 14.84L43.1339 15.84L43.6338 16.7061ZM45.3662 15.7061L44.5002 16.206L45.5353 17.999L46.4014 17.499L47.2674 16.999L46.2322 15.2061L45.3662 15.7061ZM46.4014 17.499L46.7728 18.4275C47.2056 18.2543 47.664 18.1305 48.1416 18.0622L48 17.0723L47.8584 16.0823C47.2226 16.1733 46.6099 16.3385 46.0299 16.5706L46.4014 17.499ZM48 17.0723H49V15H48H47V17.0723H48ZM48 15V16H50V15V14H48V15ZM50 15H49V17.0723H50H51V15H50Z" fill="#3D4879" mask="url(#path-3-inside-1_16_404)"/>
<circle cx="49" cy="24" r="4.75" stroke="#3D4879" stroke-width="0.5"/>
</svg>
