<svg width="80" height="49" viewBox="0 0 80 49" fill="none" xmlns="http://www.w3.org/2000/svg">
<g id="Setting Icon">
<g id="All">
<path id="Border" d="M60.352 24.4985L39.9985 44.8521L19.645 24.4985L39.9985 4.14502L60.352 24.4985ZM20.352 24.4985L39.9985 44.145L59.645 24.4985L39.9985 4.85205L20.352 24.4985ZM58.7056 24.4985L39.9985 43.2056L21.2915 24.4985L39.9985 5.7915L58.7056 24.4985ZM22.7056 24.4985L39.9985 41.7915L57.2915 24.4985L39.9985 7.20557L22.7056 24.4985Z" fill="#3D4879"/>
<path id="Icon" d="M40.9985 17.5708C41.5549 17.6504 42.09 17.7951 42.5962 17.9976L43.6323 16.2046L45.3647 17.2046L44.3276 18.9995C44.7619 19.3418 45.1542 19.7343 45.4966 20.1685L47.2925 19.1323L48.2925 20.8647L46.4985 21.8999C46.7012 22.4064 46.8466 22.9417 46.9263 23.4985H48.9985V25.4985H46.9263C46.8466 26.0551 46.701 26.5899 46.4985 27.0962L48.2925 28.1323L47.2925 29.8647L45.4966 28.8276C45.1542 29.2619 44.7619 29.6542 44.3276 29.9966L45.3647 31.7925L43.6323 32.7925L42.5962 30.9976C42.0899 31.2001 41.5551 31.3456 40.9985 31.4253V33.4985H38.9985V31.4253C38.4416 31.3456 37.9064 31.2003 37.3999 30.9976L36.3647 32.7925L34.6323 31.7925L35.6684 29.9966C35.2343 29.6542 34.8418 29.2619 34.4995 28.8276L32.7046 29.8647L31.7046 28.1323L33.4975 27.0962C33.2951 26.59 33.1504 26.055 33.0708 25.4985H30.9985V23.4985H33.0708C33.1504 22.9418 33.2949 22.4063 33.4975 21.8999L31.7046 20.8647L32.7046 19.1323L34.4995 20.1685C34.8418 19.7343 35.2343 19.3418 35.6684 18.9995L34.6323 17.2046L36.3647 16.2046L37.3999 17.9976C37.9063 17.795 38.4418 17.6504 38.9985 17.5708V15.4985H40.9985V17.5708ZM39.1401 18.561C38.6625 18.6294 38.2037 18.7531 37.771 18.9263L36.9673 19.2476L36.5347 18.4995L36.9673 19.2485L36.2876 19.7847C35.9151 20.0784 35.5783 20.4151 35.2847 20.7876L34.7485 21.4673L33.9995 21.0347L33.9975 21.0337L34.7475 21.4673L34.4263 22.271C34.2531 22.7037 34.1294 23.1625 34.061 23.6401L33.938 24.4985L34.061 25.3569C34.1293 25.8339 34.2531 26.2922 34.4263 26.7251L34.7475 27.5288L33.9975 27.9624L33.0698 28.4976L33.9995 27.9614L34.7485 27.5288L35.2847 28.2085C35.5782 28.5809 35.915 28.9176 36.2876 29.2114L36.9673 29.7466L36.9663 29.7476L37.771 30.0688C38.2048 30.2425 38.6633 30.3668 39.1401 30.4351L39.9985 30.5581L40.8569 30.4351C41.333 30.3669 41.7911 30.2425 42.2251 30.0688L43.0288 29.7476L43.7085 29.2114C44.081 28.9177 44.4177 28.581 44.7114 28.2085L45.2475 27.5288L45.9966 27.9614L46.9263 28.4976L45.9985 27.9624L45.2485 27.5288L45.5698 26.7251C45.7434 26.2911 45.8679 25.8329 45.936 25.3569L46.0591 24.4985L45.936 23.6401C45.8678 23.1635 45.7434 22.7048 45.5698 22.271L45.2485 21.4673L45.9985 21.0337L45.9966 21.0347L45.2466 21.4673L44.7114 20.7876C44.4175 20.415 44.0808 20.0782 43.7085 19.7847L43.0288 19.2485L43.4614 18.4995L43.0288 19.2476L42.2251 18.9263C41.7921 18.7531 41.3339 18.6293 40.8569 18.561L39.9985 18.438L39.1401 18.561ZM39.9985 19.4985C42.7599 19.4985 44.9985 21.7371 44.9985 24.4985C44.9985 27.26 42.7599 29.4985 39.9985 29.4985C37.2371 29.4985 34.9985 27.26 34.9985 24.4985C34.9985 21.7371 37.2371 19.4985 39.9985 19.4985ZM39.9985 19.9985C37.5132 19.9985 35.4985 22.0133 35.4985 24.4985C35.4985 26.9838 37.5132 28.9985 39.9985 28.9985C42.4838 28.9985 44.4985 26.9838 44.4985 24.4985C44.4985 22.0133 42.4838 19.9985 39.9985 19.9985Z" fill="#3D4879"/>
</g>
</g>
</svg>
