<svg width="122" height="34" viewBox="0 0 122 34" fill="none" xmlns="http://www.w3.org/2000/svg">
<g id="Timer Icon" clip-path="url(#clip0_16_350)">
<rect id="BlueBox" x="0.1" y="0.1" width="121.8" height="33.8" fill="black" stroke="#3D4879" stroke-width="0.2"/>
<rect id="BlackBox" y="30" width="122" height="4" fill="#3D4879"/>
<path id="Timers" d="M55.916 13.8105H53.2852V21H51.6328V13.8105H49.0371V12.4688H55.916V13.8105ZM57.3457 14.6602H60.7969V19.6758H62.5137V21H57.3457V19.6758H59.1504V15.9902H57.3457V14.6602ZM59.0332 13.0371C59.0332 12.9121 59.0547 12.7969 59.0977 12.6914C59.1445 12.582 59.209 12.4883 59.291 12.4102C59.373 12.3359 59.4707 12.2773 59.584 12.2344C59.7012 12.1914 59.8301 12.1699 59.9707 12.1699C60.2598 12.1699 60.4883 12.252 60.6562 12.416C60.8281 12.5762 60.9141 12.7832 60.9141 13.0371C60.9141 13.291 60.8281 13.5 60.6562 13.6641C60.4883 13.8242 60.2598 13.9043 59.9707 13.9043C59.8301 13.9043 59.7012 13.8828 59.584 13.8398C59.4707 13.7969 59.373 13.7363 59.291 13.6582C59.209 13.584 59.1445 13.4941 59.0977 13.3887C59.0547 13.2793 59.0332 13.1621 59.0332 13.0371ZM65.1328 14.6602L65.1797 15.4277C65.3008 15.1543 65.4668 14.9395 65.6777 14.7832C65.8926 14.623 66.1523 14.543 66.457 14.543C66.6055 14.543 66.7383 14.5605 66.8555 14.5957C66.9727 14.6309 67.0742 14.6855 67.1602 14.7598C67.2266 14.8145 67.2832 14.8809 67.3301 14.959C67.3809 15.0332 67.4238 15.1191 67.459 15.2168C67.5137 15.123 67.5742 15.0391 67.6406 14.9648C67.7109 14.8867 67.7871 14.8203 67.8691 14.7656C67.9707 14.6953 68.0859 14.6406 68.2148 14.6016C68.3438 14.5625 68.4844 14.543 68.6367 14.543C68.8281 14.543 69.0059 14.5781 69.1699 14.6484C69.3379 14.7188 69.4844 14.8301 69.6094 14.9824C69.7305 15.1387 69.8242 15.3398 69.8906 15.5859C69.9609 15.8281 69.9961 16.125 69.9961 16.4766V21H68.5137V16.4707C68.5137 16.3496 68.5 16.25 68.4727 16.1719C68.4492 16.0938 68.416 16.0312 68.373 15.9844C68.3301 15.9414 68.2793 15.9121 68.2207 15.8965C68.166 15.877 68.1094 15.8672 68.0508 15.8672C67.9883 15.8672 67.9316 15.875 67.8809 15.8906C67.834 15.9062 67.7891 15.9277 67.7461 15.9551C67.7109 15.9824 67.6797 16.0137 67.6523 16.0488C67.625 16.0801 67.6016 16.1172 67.582 16.1602C67.582 16.168 67.582 16.1855 67.582 16.2129C67.582 16.2402 67.582 16.2773 67.582 16.3242V21H66.1465V16.4648C66.1465 16.3438 66.1348 16.2441 66.1113 16.166C66.0879 16.0879 66.0566 16.0273 66.0176 15.9844C65.9746 15.9414 65.9258 15.9121 65.8711 15.8965C65.8164 15.877 65.7578 15.8672 65.6953 15.8672C65.625 15.8672 65.5625 15.8789 65.5078 15.9023C65.4531 15.9258 65.4043 15.959 65.3613 16.002C65.3301 16.0332 65.3027 16.0703 65.2793 16.1133C65.2559 16.1562 65.2344 16.2031 65.2148 16.2539V21H63.7324V14.6602H65.1328ZM74.4023 21.1172C73.9141 21.1172 73.4707 21.0371 73.0723 20.877C72.6738 20.7168 72.332 20.498 72.0469 20.2207C71.7617 19.9473 71.541 19.625 71.3848 19.2539C71.2324 18.8789 71.1562 18.4785 71.1562 18.0527V17.8184C71.1562 17.334 71.2324 16.8926 71.3848 16.4941C71.5371 16.0918 71.75 15.7461 72.0234 15.457C72.2969 15.168 72.6211 14.9434 72.9961 14.7832C73.3711 14.623 73.7793 14.543 74.2207 14.543C74.6777 14.543 75.084 14.6191 75.4395 14.7715C75.7988 14.9199 76.1035 15.1309 76.3535 15.4043C76.5996 15.6777 76.7871 16.0078 76.916 16.3945C77.0449 16.7773 77.1094 17.2012 77.1094 17.666V18.3574H72.8086V18.375C72.8633 18.6289 72.9336 18.834 73.0195 18.9902C73.1055 19.1426 73.2207 19.2812 73.3652 19.4062C73.5137 19.5352 73.6836 19.6348 73.875 19.7051C74.0664 19.7754 74.2754 19.8105 74.502 19.8105C74.8223 19.8105 75.1328 19.75 75.4336 19.6289C75.7344 19.5078 75.9785 19.3262 76.166 19.084L76.9805 19.9629C76.7734 20.2559 76.4453 20.5215 75.9961 20.7598C75.5469 20.998 75.0156 21.1172 74.4023 21.1172ZM74.209 15.8613C74.0254 15.8613 73.8574 15.8945 73.7051 15.9609C73.5527 16.0234 73.4199 16.1152 73.3066 16.2363C73.1895 16.3574 73.0918 16.502 73.0137 16.6699C72.9355 16.8379 72.877 17.0254 72.8379 17.2324H75.5098V17.1035C75.5098 16.9316 75.4785 16.7695 75.416 16.6172C75.3535 16.4648 75.2676 16.332 75.1582 16.2188C75.0488 16.1094 74.9141 16.0234 74.7539 15.9609C74.5977 15.8945 74.416 15.8613 74.209 15.8613ZM83.0859 14.543C83.332 14.543 83.5586 14.5605 83.7656 14.5957C83.9766 14.627 84.1465 14.6621 84.2754 14.7012L84.0352 16.3242C83.8203 16.2734 83.5996 16.2363 83.373 16.2129C83.1504 16.1855 82.9375 16.1719 82.7344 16.1719C82.5234 16.1719 82.332 16.1914 82.1602 16.2305C81.9922 16.2656 81.8418 16.3203 81.709 16.3945C81.5488 16.4805 81.4121 16.5898 81.2988 16.7227C81.1855 16.8555 81.0918 17.0117 81.0176 17.1914V21H79.3887V14.6602H80.9062L80.9707 15.5566L80.9824 15.6973C81.2402 15.3379 81.5488 15.0566 81.9082 14.8535C82.2676 14.6465 82.6602 14.543 83.0859 14.543ZM89.8301 19.2598C89.8301 19.1621 89.8066 19.0762 89.7598 19.002C89.7168 18.9277 89.6387 18.8574 89.5254 18.791C89.4082 18.7285 89.2539 18.6699 89.0625 18.6152C88.8711 18.5605 88.6289 18.5059 88.3359 18.4512C87.9648 18.377 87.625 18.2852 87.3164 18.1758C87.0117 18.0625 86.75 17.9258 86.5312 17.7656C86.3125 17.6094 86.1406 17.4277 86.0156 17.2207C85.8945 17.0137 85.834 16.7754 85.834 16.5059C85.834 16.2441 85.8965 15.9941 86.0215 15.7559C86.1465 15.5176 86.3262 15.3086 86.5605 15.1289C86.7949 14.9492 87.0801 14.8066 87.416 14.7012C87.752 14.5957 88.1309 14.543 88.5527 14.543C88.9941 14.543 89.3906 14.5957 89.7422 14.7012C90.0938 14.8027 90.3926 14.9434 90.6387 15.123C90.8809 15.3066 91.0664 15.5234 91.1953 15.7734C91.3242 16.0234 91.3887 16.2949 91.3887 16.5879H89.7598C89.7598 16.4824 89.7422 16.3848 89.707 16.2949C89.6719 16.2012 89.6191 16.1172 89.5488 16.043C89.4512 15.9453 89.3184 15.8672 89.1504 15.8086C88.9863 15.75 88.7871 15.7207 88.5527 15.7207C88.3535 15.7207 88.1797 15.7402 88.0312 15.7793C87.8828 15.8184 87.7617 15.873 87.668 15.9434C87.582 16.0059 87.5156 16.0801 87.4688 16.166C87.4258 16.248 87.4043 16.3359 87.4043 16.4297C87.4043 16.5234 87.4238 16.6113 87.4629 16.6934C87.502 16.7715 87.5723 16.8418 87.6738 16.9043C87.7715 16.9707 87.9062 17.0312 88.0781 17.0859C88.25 17.1367 88.4688 17.1816 88.7344 17.2207C89.1172 17.2832 89.4727 17.3633 89.8008 17.4609C90.1289 17.5586 90.4121 17.6836 90.6504 17.8359C90.8887 17.9922 91.0742 18.1816 91.207 18.4043C91.3438 18.623 91.4121 18.8848 91.4121 19.1895C91.4121 19.4707 91.3438 19.7305 91.207 19.9688C91.0742 20.2031 90.8848 20.4062 90.6387 20.5781C90.3887 20.75 90.0879 20.8848 89.7363 20.9824C89.3848 21.0762 88.9922 21.123 88.5586 21.123C88.082 21.123 87.6602 21.0605 87.293 20.9355C86.9297 20.8105 86.625 20.6465 86.3789 20.4434C86.1328 20.2441 85.9453 20.0176 85.8164 19.7637C85.6914 19.5059 85.6289 19.248 85.6289 18.9902H87.1816C87.1934 19.1621 87.2402 19.3105 87.3223 19.4355C87.4043 19.5566 87.5098 19.6543 87.6387 19.7285C87.7676 19.8066 87.9141 19.8633 88.0781 19.8984C88.2461 19.9336 88.418 19.9512 88.5938 19.9512C88.8047 19.9512 88.9883 19.9336 89.1445 19.8984C89.3047 19.8594 89.4355 19.8086 89.5371 19.7461C89.6348 19.6836 89.707 19.6113 89.7539 19.5293C89.8047 19.4473 89.8301 19.3574 89.8301 19.2598Z" fill="#3D4879"/>
<path id="Icon" d="M25.4834 19.2295L29.4805 23.0361L29.6133 23.1641L29.4346 23.2061L24.1055 24.4756L23.9434 24.5137L23.9854 24.3525L25.3174 19.2764L25.3604 19.1133L25.4834 19.2295ZM37.8252 19.2734L39.1572 24.3496L39.1992 24.5107L39.0371 24.4727L33.708 23.2031L33.5293 23.1611L33.6621 23.0332L37.6592 19.2266L37.7822 19.1104L37.8252 19.2734ZM31.5439 8.10156L39.9814 16.1377L40.0195 16.1738L39.9814 16.2109L31.5439 24.2471L31.5098 24.2803L31.4756 24.2471L23.0381 16.2109L23 16.1738L23.0381 16.1377L31.4756 8.10156L31.5098 8.06836L31.5439 8.10156ZM24.2217 24.2422L29.209 23.0547L25.4678 19.4912L24.2217 24.2422ZM33.9336 23.0518L38.9209 24.2393L37.6748 19.4883L33.9336 23.0518ZM23.1445 16.1738L31.5098 24.1416L39.874 16.1738L31.5098 8.20605L23.1445 16.1738ZM31.6816 8.80273L39.2314 15.9932L39.4209 16.1738L39.2314 16.3555L31.6816 23.5459L31.5098 23.71L31.3369 23.5459L23.7871 16.3555L23.5977 16.1738L23.7871 15.9932L31.3369 8.80273L31.5098 8.6377L31.6816 8.80273ZM25.9277 20.0752L28.5928 22.6133L28.7256 22.7402L28.5469 22.7822L24.9941 23.6289L24.832 23.667L24.874 23.5059L25.7627 20.1221L25.8057 19.958L25.9277 20.0752ZM37.3799 20.1191L38.2686 23.5029L38.3105 23.6641L38.1484 23.626L34.5957 22.7793L34.417 22.7373L34.5498 22.6104L37.2148 20.0723L37.3369 19.9551L37.3799 20.1191ZM27.9873 12.6816L28.4385 13.1123L28.2939 13.249L27.8428 12.8193L24.3223 16.1738L27.8271 19.5127L28.2939 19.0693L28.4375 19.207L27.9717 19.6494L31.5088 23.0186L38.6963 16.1738L35.1592 12.8047L34.6934 13.249L34.5488 13.1113L35.0146 12.667L31.5088 9.32812L27.9873 12.6816ZM31.6094 22.5186H31.4102V21.6729H31.6094V22.5186ZM35.1729 19.5264L35.0293 19.6641L34.5479 19.2061L34.6924 19.0684L35.1729 19.5264ZM31.8574 14.9678L32.7432 15.8125L33.123 16.1738L32.7432 16.5361L32.5029 16.7637L34.1699 18.708L32.1289 17.1201L31.8555 17.3818L31.5098 17.7109L31.165 17.3818L30.2773 16.5361L29.8975 16.1738L30.2773 15.8125L31.1611 14.9688L31.5098 11.5215L31.8574 14.9678ZM31.3467 16.1738L31.5098 16.3291L31.6729 16.1738L31.5098 16.0186L31.3467 16.1738ZM25.7363 16.2734H24.8486V16.0742H25.7363V16.2734ZM38.1709 16.2734H37.2832V16.0742H38.1709V16.2734ZM39.1562 8.16309L37.8242 13.2393L37.7812 13.4023L37.6582 13.2861L33.6611 9.47949L33.5283 9.35156L33.707 9.30957L39.0361 8.04004L39.1982 8.00195L39.1562 8.16309ZM23.9277 8.03809L29.2568 9.30762L29.4355 9.34961L29.3027 9.47754L25.3057 13.2842L25.1826 13.4004L25.1396 13.2373L23.8076 8.16113L23.7656 8L23.9277 8.03809ZM33.9326 9.46094L37.6738 13.0244L38.9199 8.27344L33.9326 9.46094ZM25.29 13.0225L29.0312 9.45898L24.0439 8.27148L25.29 13.0225ZM38.2676 9.00977L37.3789 12.3936L37.3359 12.5576L37.2139 12.4404L34.5488 9.90234L34.416 9.77539L34.5947 9.7334L38.1475 8.88672L38.3096 8.84863L38.2676 9.00977ZM24.8164 8.88477L28.3691 9.73145L28.5479 9.77344L28.415 9.90039L25.75 12.4385L25.6279 12.5557L25.585 12.3916L24.6963 9.00781L24.6543 8.84668L24.8164 8.88477ZM31.6094 10.6748H31.4102V9.8291H31.6094V10.6748Z" fill="#3D4879"/>
</g>
<defs>
<clipPath id="clip0_16_350">
<rect width="122" height="34" fill="white"/>
</clipPath>
</defs>
</svg>
