<svg width="110" height="34" viewBox="0 0 110 34" fill="none" xmlns="http://www.w3.org/2000/svg">
<path d="M105.23 8.2002L109.774 17L105.23 25.7998H0.200195V8.2002H105.23Z" fill="#010411" stroke="#3D4879" stroke-width="0.4"/>
<path d="M17.6211 21L15.043 12.4688H16.8594L18.3066 18.041L18.4531 18.6152L18.6113 18.0352L20.0645 12.4688H21.8809L19.2969 21H17.6211ZM22.6719 17.7715C22.6719 17.3105 22.7383 16.8848 22.8711 16.4941C23.0039 16.0996 23.1992 15.7578 23.457 15.4688C23.7109 15.1797 24.0215 14.9531 24.3887 14.7891C24.7598 14.625 25.1836 14.543 25.6602 14.543C26.1367 14.543 26.5605 14.625 26.9316 14.7891C27.3027 14.9531 27.6172 15.1797 27.875 15.4688C28.1289 15.7578 28.3223 16.0996 28.4551 16.4941C28.5879 16.8848 28.6543 17.3105 28.6543 17.7715V17.8945C28.6543 18.3594 28.5879 18.7891 28.4551 19.1836C28.3223 19.5742 28.1289 19.9141 27.875 20.2031C27.6211 20.4922 27.3086 20.7188 26.9375 20.8828C26.5664 21.043 26.1445 21.123 25.6719 21.123C25.1953 21.123 24.7695 21.043 24.3945 20.8828C24.0234 20.7188 23.7109 20.4922 23.457 20.2031C23.1992 19.9141 23.0039 19.5742 22.8711 19.1836C22.7383 18.7891 22.6719 18.3594 22.6719 17.8945V17.7715ZM24.3008 17.8945C24.3008 18.1602 24.3262 18.4102 24.377 18.6445C24.4277 18.875 24.5078 19.0762 24.6172 19.248C24.7266 19.4238 24.8672 19.5625 25.0391 19.6641C25.2148 19.7656 25.4258 19.8164 25.6719 19.8164C25.9102 19.8164 26.1152 19.7656 26.2871 19.6641C26.459 19.5625 26.5996 19.4238 26.709 19.248C26.8145 19.0762 26.8926 18.875 26.9434 18.6445C26.9941 18.4102 27.0195 18.1602 27.0195 17.8945V17.7715C27.0195 17.5137 26.9941 17.2695 26.9434 17.0391C26.8926 16.8086 26.8145 16.6055 26.709 16.4297C26.5996 16.2539 26.459 16.1152 26.2871 16.0137C26.1152 15.9121 25.9062 15.8613 25.6602 15.8613C25.418 15.8613 25.2109 15.9121 25.0391 16.0137C24.8672 16.1152 24.7266 16.2539 24.6172 16.4297C24.5078 16.6055 24.4277 16.8086 24.377 17.0391C24.3262 17.2695 24.3008 17.5137 24.3008 17.7715V17.8945ZM30.5352 14.6602H33.9863V19.6758H35.7031V21H30.5352V19.6758H32.3398V15.9902H30.5352V14.6602ZM32.2227 13.0371C32.2227 12.9121 32.2441 12.7969 32.2871 12.6914C32.334 12.582 32.3984 12.4883 32.4805 12.4102C32.5625 12.3359 32.6602 12.2773 32.7734 12.2344C32.8906 12.1914 33.0195 12.1699 33.1602 12.1699C33.4492 12.1699 33.6777 12.252 33.8457 12.416C34.0176 12.5762 34.1035 12.7832 34.1035 13.0371C34.1035 13.291 34.0176 13.5 33.8457 13.6641C33.6777 13.8242 33.4492 13.9043 33.1602 13.9043C33.0195 13.9043 32.8906 13.8828 32.7734 13.8398C32.6602 13.7969 32.5625 13.7363 32.4805 13.6582C32.3984 13.584 32.334 13.4941 32.2871 13.3887C32.2441 13.2793 32.2227 13.1621 32.2227 13.0371ZM37.1387 17.7832C37.1387 17.3027 37.1934 16.8633 37.3027 16.4648C37.416 16.0664 37.5801 15.7246 37.7949 15.4395C38.0098 15.1543 38.2695 14.9336 38.5742 14.7773C38.8828 14.6211 39.2344 14.543 39.6289 14.543C39.9609 14.543 40.252 14.6035 40.502 14.7246C40.7559 14.8418 40.9805 15.0098 41.1758 15.2285V12H42.8105V21H41.3398L41.2578 20.3379C41.0586 20.584 40.8242 20.7754 40.5547 20.9121C40.2852 21.0488 39.9727 21.1172 39.6172 21.1172C39.2305 21.1172 38.8828 21.0371 38.5742 20.877C38.2695 20.7129 38.0117 20.4883 37.8008 20.2031C37.5859 19.918 37.4219 19.5801 37.3086 19.1895C37.1953 18.7949 37.1387 18.3672 37.1387 17.9062V17.7832ZM38.7676 17.9062C38.7676 18.1719 38.7891 18.4199 38.832 18.6504C38.8789 18.877 38.9531 19.0742 39.0547 19.2422C39.1562 19.4141 39.2871 19.5488 39.4473 19.6465C39.6074 19.7441 39.8027 19.793 40.0332 19.793C40.3145 19.793 40.5469 19.7324 40.7305 19.6113C40.918 19.4902 41.0664 19.3242 41.1758 19.1133V16.5469C41.0664 16.332 40.9199 16.166 40.7363 16.0488C40.5527 15.9277 40.3223 15.8672 40.0449 15.8672C39.8145 15.8672 39.6172 15.918 39.4531 16.0195C39.293 16.1172 39.1621 16.252 39.0605 16.4238C38.959 16.5996 38.8848 16.8047 38.8379 17.0391C38.791 17.2695 38.7676 17.5176 38.7676 17.7832V17.9062ZM56.0938 18.7734C56.0938 18.6211 56.0664 18.4785 56.0117 18.3457C55.9609 18.2129 55.873 18.0879 55.748 17.9707C55.6191 17.8574 55.4512 17.7539 55.2441 17.6602C55.041 17.5625 54.7871 17.4727 54.4824 17.3906C54.0098 17.2617 53.5938 17.1055 53.2344 16.9219C52.8789 16.7383 52.5879 16.5371 52.3613 16.3184C52.1348 16.0996 51.9629 15.8574 51.8457 15.5918C51.7324 15.3262 51.6758 15.0371 51.6758 14.7246C51.6758 14.3652 51.752 14.0391 51.9043 13.7461C52.0566 13.4531 52.2676 13.2031 52.5371 12.9961C52.8066 12.7891 53.125 12.6309 53.4922 12.5215C53.8594 12.4082 54.2578 12.3516 54.6875 12.3516C55.1328 12.3516 55.5391 12.416 55.9062 12.5449C56.2773 12.6738 56.5957 12.8535 56.8613 13.084C57.127 13.3184 57.334 13.5957 57.4824 13.916C57.6309 14.2363 57.7051 14.5879 57.7051 14.9707H56.0996C56.0918 14.7793 56.0566 14.6035 55.9941 14.4434C55.9355 14.2832 55.8477 14.1445 55.7305 14.0273C55.6094 13.9141 55.459 13.8262 55.2793 13.7637C55.1035 13.6973 54.8965 13.6641 54.6582 13.6641C54.4395 13.6641 54.2441 13.6914 54.0723 13.7461C53.9043 13.7969 53.7617 13.8691 53.6445 13.9629C53.5273 14.0605 53.4375 14.1758 53.375 14.3086C53.3164 14.4375 53.2871 14.5781 53.2871 14.7305C53.2871 14.8906 53.3262 15.0352 53.4043 15.1641C53.4863 15.293 53.6035 15.4082 53.7559 15.5098C53.9082 15.6152 54.0918 15.7109 54.3066 15.7969C54.5254 15.8828 54.7715 15.9629 55.0449 16.0371C55.3379 16.1191 55.6172 16.2188 55.8828 16.3359C56.1484 16.4531 56.3926 16.5879 56.6152 16.7402C56.9512 16.9902 57.2188 17.2812 57.418 17.6133C57.6172 17.9453 57.7168 18.3281 57.7168 18.7617C57.7168 19.1367 57.6406 19.4707 57.4883 19.7637C57.3398 20.0527 57.1328 20.2969 56.8672 20.4961C56.6016 20.6992 56.2852 20.8535 55.918 20.959C55.5508 21.0605 55.1504 21.1113 54.7168 21.1113C54.291 21.1113 53.8691 21.0488 53.4512 20.9238C53.0371 20.7949 52.6758 20.6074 52.3672 20.3613C52.0742 20.1191 51.8418 19.834 51.6699 19.5059C51.502 19.1777 51.418 18.793 51.418 18.3516H53.0352C53.043 18.6094 53.0879 18.8301 53.1699 19.0137C53.252 19.1973 53.3672 19.3477 53.5156 19.4648C53.6602 19.582 53.834 19.668 54.0371 19.7227C54.2441 19.7773 54.4707 19.8047 54.7168 19.8047C54.9355 19.8047 55.1289 19.7793 55.2969 19.7285C55.4688 19.6777 55.6133 19.6074 55.7305 19.5176C55.8477 19.4277 55.9375 19.3203 56 19.1953C56.0625 19.0664 56.0938 18.9258 56.0938 18.7734ZM61.918 13.1074V14.6602H64.2852V15.8613H61.918V18.5859C61.918 18.8164 61.9434 19.0098 61.9941 19.166C62.0488 19.3184 62.125 19.4395 62.2227 19.5293C62.3203 19.623 62.4375 19.6895 62.5742 19.7285C62.7148 19.7676 62.8711 19.7871 63.043 19.7871C63.168 19.7871 63.2949 19.7812 63.4238 19.7695C63.5566 19.7578 63.6836 19.7422 63.8047 19.7227C63.9219 19.707 64.0312 19.6895 64.1328 19.6699C64.2383 19.6504 64.3281 19.6309 64.4023 19.6113L64.5605 20.7305C64.4473 20.7969 64.3145 20.8555 64.1621 20.9062C64.0098 20.9531 63.8477 20.9922 63.6758 21.0234C63.5039 21.0547 63.3242 21.0781 63.1367 21.0938C62.9531 21.1133 62.7715 21.123 62.5918 21.123C62.2441 21.123 61.9277 21.0781 61.6426 20.9883C61.3613 20.8945 61.1211 20.75 60.9219 20.5547C60.7188 20.3633 60.5625 20.1191 60.4531 19.8223C60.3438 19.5215 60.2891 19.1621 60.2891 18.7441V15.8613H58.8418V14.6602H60.2891V13.1074H61.918ZM65.9141 17.7715C65.9141 17.3105 65.9805 16.8848 66.1133 16.4941C66.2461 16.0996 66.4414 15.7578 66.6992 15.4688C66.9531 15.1797 67.2637 14.9531 67.6309 14.7891C68.002 14.625 68.4258 14.543 68.9023 14.543C69.3789 14.543 69.8027 14.625 70.1738 14.7891C70.5449 14.9531 70.8594 15.1797 71.1172 15.4688C71.3711 15.7578 71.5645 16.0996 71.6973 16.4941C71.8301 16.8848 71.8965 17.3105 71.8965 17.7715V17.8945C71.8965 18.3594 71.8301 18.7891 71.6973 19.1836C71.5645 19.5742 71.3711 19.9141 71.1172 20.2031C70.8633 20.4922 70.5508 20.7188 70.1797 20.8828C69.8086 21.043 69.3867 21.123 68.9141 21.123C68.4375 21.123 68.0117 21.043 67.6367 20.8828C67.2656 20.7188 66.9531 20.4922 66.6992 20.2031C66.4414 19.9141 66.2461 19.5742 66.1133 19.1836C65.9805 18.7891 65.9141 18.3594 65.9141 17.8945V17.7715ZM67.543 17.8945C67.543 18.1602 67.5684 18.4102 67.6191 18.6445C67.6699 18.875 67.75 19.0762 67.8594 19.248C67.9688 19.4238 68.1094 19.5625 68.2812 19.6641C68.457 19.7656 68.668 19.8164 68.9141 19.8164C69.1523 19.8164 69.3574 19.7656 69.5293 19.6641C69.7012 19.5625 69.8418 19.4238 69.9512 19.248C70.0566 19.0762 70.1348 18.875 70.1855 18.6445C70.2363 18.4102 70.2617 18.1602 70.2617 17.8945V17.7715C70.2617 17.5137 70.2363 17.2695 70.1855 17.0391C70.1348 16.8086 70.0566 16.6055 69.9512 16.4297C69.8418 16.2539 69.7012 16.1152 69.5293 16.0137C69.3574 15.9121 69.1484 15.8613 68.9023 15.8613C68.6602 15.8613 68.4531 15.9121 68.2812 16.0137C68.1094 16.1152 67.9688 16.2539 67.8594 16.4297C67.75 16.6055 67.6699 16.8086 67.6191 17.0391C67.5684 17.2695 67.543 17.5137 67.543 17.7715V17.8945ZM77.8965 14.543C78.1426 14.543 78.3691 14.5605 78.5762 14.5957C78.7871 14.627 78.957 14.6621 79.0859 14.7012L78.8457 16.3242C78.6309 16.2734 78.4102 16.2363 78.1836 16.2129C77.9609 16.1855 77.748 16.1719 77.5449 16.1719C77.334 16.1719 77.1426 16.1914 76.9707 16.2305C76.8027 16.2656 76.6523 16.3203 76.5195 16.3945C76.3594 16.4805 76.2227 16.5898 76.1094 16.7227C75.9961 16.8555 75.9023 17.0117 75.8281 17.1914V21H74.1992V14.6602H75.7168L75.7812 15.5566L75.793 15.6973C76.0508 15.3379 76.3594 15.0566 76.7188 14.8535C77.0781 14.6465 77.4707 14.543 77.8965 14.543ZM81.5645 14.6602L81.6113 15.4277C81.7324 15.1543 81.8984 14.9395 82.1094 14.7832C82.3242 14.623 82.584 14.543 82.8887 14.543C83.0371 14.543 83.1699 14.5605 83.2871 14.5957C83.4043 14.6309 83.5059 14.6855 83.5918 14.7598C83.6582 14.8145 83.7148 14.8809 83.7617 14.959C83.8125 15.0332 83.8555 15.1191 83.8906 15.2168C83.9453 15.123 84.0059 15.0391 84.0723 14.9648C84.1426 14.8867 84.2188 14.8203 84.3008 14.7656C84.4023 14.6953 84.5176 14.6406 84.6465 14.6016C84.7754 14.5625 84.916 14.543 85.0684 14.543C85.2598 14.543 85.4375 14.5781 85.6016 14.6484C85.7695 14.7188 85.916 14.8301 86.041 14.9824C86.1621 15.1387 86.2559 15.3398 86.3223 15.5859C86.3926 15.8281 86.4277 16.125 86.4277 16.4766V21H84.9453V16.4707C84.9453 16.3496 84.9316 16.25 84.9043 16.1719C84.8809 16.0938 84.8477 16.0312 84.8047 15.9844C84.7617 15.9414 84.7109 15.9121 84.6523 15.8965C84.5977 15.877 84.541 15.8672 84.4824 15.8672C84.4199 15.8672 84.3633 15.875 84.3125 15.8906C84.2656 15.9062 84.2207 15.9277 84.1777 15.9551C84.1426 15.9824 84.1113 16.0137 84.084 16.0488C84.0566 16.0801 84.0332 16.1172 84.0137 16.1602C84.0137 16.168 84.0137 16.1855 84.0137 16.2129C84.0137 16.2402 84.0137 16.2773 84.0137 16.3242V21H82.5781V16.4648C82.5781 16.3438 82.5664 16.2441 82.543 16.166C82.5195 16.0879 82.4883 16.0273 82.4492 15.9844C82.4062 15.9414 82.3574 15.9121 82.3027 15.8965C82.248 15.877 82.1895 15.8672 82.127 15.8672C82.0566 15.8672 81.9941 15.8789 81.9395 15.9023C81.8848 15.9258 81.8359 15.959 81.793 16.002C81.7617 16.0332 81.7344 16.0703 81.7109 16.1133C81.6875 16.1562 81.666 16.2031 81.6465 16.2539V21H80.1641V14.6602H81.5645ZM91.8477 19.2598C91.8477 19.1621 91.8242 19.0762 91.7773 19.002C91.7344 18.9277 91.6562 18.8574 91.543 18.791C91.4258 18.7285 91.2715 18.6699 91.0801 18.6152C90.8887 18.5605 90.6465 18.5059 90.3535 18.4512C89.9824 18.377 89.6426 18.2852 89.334 18.1758C89.0293 18.0625 88.7676 17.9258 88.5488 17.7656C88.3301 17.6094 88.1582 17.4277 88.0332 17.2207C87.9121 17.0137 87.8516 16.7754 87.8516 16.5059C87.8516 16.2441 87.9141 15.9941 88.0391 15.7559C88.1641 15.5176 88.3438 15.3086 88.5781 15.1289C88.8125 14.9492 89.0977 14.8066 89.4336 14.7012C89.7695 14.5957 90.1484 14.543 90.5703 14.543C91.0117 14.543 91.4082 14.5957 91.7598 14.7012C92.1113 14.8027 92.4102 14.9434 92.6562 15.123C92.8984 15.3066 93.084 15.5234 93.2129 15.7734C93.3418 16.0234 93.4062 16.2949 93.4062 16.5879H91.7773C91.7773 16.4824 91.7598 16.3848 91.7246 16.2949C91.6895 16.2012 91.6367 16.1172 91.5664 16.043C91.4688 15.9453 91.3359 15.8672 91.168 15.8086C91.0039 15.75 90.8047 15.7207 90.5703 15.7207C90.3711 15.7207 90.1973 15.7402 90.0488 15.7793C89.9004 15.8184 89.7793 15.873 89.6855 15.9434C89.5996 16.0059 89.5332 16.0801 89.4863 16.166C89.4434 16.248 89.4219 16.3359 89.4219 16.4297C89.4219 16.5234 89.4414 16.6113 89.4805 16.6934C89.5195 16.7715 89.5898 16.8418 89.6914 16.9043C89.7891 16.9707 89.9238 17.0312 90.0957 17.0859C90.2676 17.1367 90.4863 17.1816 90.752 17.2207C91.1348 17.2832 91.4902 17.3633 91.8184 17.4609C92.1465 17.5586 92.4297 17.6836 92.668 17.8359C92.9062 17.9922 93.0918 18.1816 93.2246 18.4043C93.3613 18.623 93.4297 18.8848 93.4297 19.1895C93.4297 19.4707 93.3613 19.7305 93.2246 19.9688C93.0918 20.2031 92.9023 20.4062 92.6562 20.5781C92.4062 20.75 92.1055 20.8848 91.7539 20.9824C91.4023 21.0762 91.0098 21.123 90.5762 21.123C90.0996 21.123 89.6777 21.0605 89.3105 20.9355C88.9473 20.8105 88.6426 20.6465 88.3965 20.4434C88.1504 20.2441 87.9629 20.0176 87.834 19.7637C87.709 19.5059 87.6465 19.248 87.6465 18.9902H89.1992C89.2109 19.1621 89.2578 19.3105 89.3398 19.4355C89.4219 19.5566 89.5273 19.6543 89.6562 19.7285C89.7852 19.8066 89.9316 19.8633 90.0957 19.8984C90.2637 19.9336 90.4355 19.9512 90.6113 19.9512C90.8223 19.9512 91.0059 19.9336 91.1621 19.8984C91.3223 19.8594 91.4531 19.8086 91.5547 19.7461C91.6523 19.6836 91.7246 19.6113 91.7715 19.5293C91.8223 19.4473 91.8477 19.3574 91.8477 19.2598Z" fill="#3D4879"/>
</svg>
